<?xml version="1.0" encoding="UTF-8" standalone="no"?><!DOCTYPE svg PUBLIC "-//W3C//DTD SVG 1.1//EN" "http://www.w3.org/Graphics/SVG/1.1/DTD/svg11.dtd"><svg width="100%" height="100%" viewBox="0 0 212 64" version="1.1" xmlns="http://www.w3.org/2000/svg" xmlns:xlink="http://www.w3.org/1999/xlink" xml:space="preserve" xmlns:serif="http://www.serif.com/" style="fill-rule:evenodd;clip-rule:evenodd;stroke-linejoin:round;stroke-miterlimit:2;"><g><path d="M13.412,5.11c-0,2.643 2.15,4.792 4.792,4.792c0.235,0 0.475,-0.019 0.729,-0.059l3.275,10.775l-5.473,-2.108c0.061,-0.276 0.091,-0.549 0.091,-0.816c0,-2.125 -1.729,-3.855 -3.854,-3.855c-2.126,0 -3.855,1.73 -3.855,3.855c-0,2.126 1.729,3.855 3.855,3.855c1.042,0 2.048,-0.432 2.775,-1.188l7.491,3.645l2.089,6.876l-18.799,-5.701c0.212,-0.576 0.255,-1.193 0.125,-1.794c-0.182,-0.847 -0.685,-1.572 -1.413,-2.042c-1.503,-0.969 -3.515,-0.534 -4.485,0.969c-0.968,1.504 -0.534,3.516 0.97,4.485c0.722,0.465 1.603,0.625 2.443,0.444c0.494,-0.107 0.96,-0.33 1.352,-0.647l19.837,7.916l-0.201,8.038l-13.683,-5.208c0.295,-1.816 -0.72,-3.593 -2.446,-4.255c-0.97,-0.371 -2.028,-0.343 -2.978,0.08c-0.949,0.423 -1.677,1.191 -2.048,2.162c-0.372,0.971 -0.344,2.028 0.079,2.977c0.424,0.949 1.191,1.677 2.162,2.049c0.447,0.171 0.913,0.258 1.388,0.258c1.303,-0 2.537,-0.669 3.252,-1.752l14.178,7.475l-0.386,15.406c-0,1.142 0.929,2.071 2.071,2.071c1.142,-0 2.072,-0.929 2.072,-2.075l-0.442,-17.593l12.407,-7.743c0.774,1.133 2.048,1.806 3.431,1.806c0.669,-0 1.337,-0.166 1.931,-0.479c0.981,-0.518 1.703,-1.386 2.03,-2.446c0.328,-1.06 0.224,-2.184 -0.294,-3.165c-0.518,-0.981 -1.386,-1.702 -2.446,-2.03c-1.059,-0.328 -2.183,-0.224 -3.165,0.294c-1.583,0.835 -2.457,2.627 -2.152,4.387l-11.843,5.359l-0.148,-5.918l13.654,-13.741l0.019,-0.023c0.01,-0.017 0.02,-0.033 0.03,-0.05c0.826,0.33 1.728,0.397 2.599,0.196c1.139,-0.264 2.107,-0.956 2.726,-1.948c0.618,-0.992 0.813,-2.165 0.55,-3.303c-0.264,-1.139 -0.956,-2.107 -1.947,-2.725c-0.992,-0.619 -2.165,-0.814 -3.304,-0.551c-1.139,0.264 -2.107,0.956 -2.725,1.948c-0.619,0.991 -0.814,2.165 -0.55,3.303c0.198,0.858 0.643,1.622 1.289,2.219c-0.01,0.014 -0.019,0.029 -0.028,0.044l-12.355,10.193l-2.339,-6.381c0.032,-0.067 0.061,-0.136 0.087,-0.207c0.01,-0.028 0.017,-0.056 0.024,-0.084l4.013,-6.562c0.427,0.123 0.87,0.185 1.316,0.185c2.639,-0 4.786,-2.147 4.786,-4.786c-0,-2.638 -2.147,-4.785 -4.786,-4.785c-2.638,0 -4.785,2.147 -4.785,4.785c-0,1.3 0.54,2.553 1.486,3.457l-3.414,4.524l-3.901,-10.641c1.499,-0.853 2.425,-2.439 2.425,-4.167c0,-2.642 -2.15,-4.792 -4.792,-4.792c-2.642,-0 -4.792,2.15 -4.792,4.792Z" style="fill:url(#_Linear1);fill-rule:nonzero;"/><path d="M71.735,31.601c4.48,0 6.721,-2.178 6.721,-6.533c-0,-4.336 -2.241,-6.504 -6.721,-6.504l-3.196,-0l-0,13.037l3.196,0Zm-7.288,3.079c-0.379,-0.364 -0.568,-0.882 -0.568,-1.554l-0,-16.088c-0,-0.672 0.189,-1.189 0.568,-1.555c0.377,-0.363 0.915,-0.546 1.613,-0.546l6.003,-0c2.29,-0 4.262,0.402 5.915,1.208c1.653,0.806 2.917,1.968 3.794,3.483c0.876,1.516 1.314,3.329 1.314,5.44c0,2.11 -0.433,3.928 -1.3,5.454c-0.866,1.525 -2.126,2.691 -3.778,3.496c-1.653,0.806 -3.634,1.209 -5.945,1.209l-6.003,0c-0.698,0 -1.236,-0.182 -1.613,-0.547" style="fill:#768890;fill-rule:nonzero;"/><path d="M92.674,34.796c-0.418,-0.403 -0.628,-0.95 -0.628,-1.641l0,-16.146c0,-0.672 0.21,-1.208 0.628,-1.611c0.418,-0.403 0.986,-0.605 1.703,-0.605c0.717,-0 1.284,0.202 1.702,0.605c0.418,0.403 0.628,0.939 0.628,1.611l-0,16.146c-0,0.691 -0.21,1.238 -0.628,1.641c-0.418,0.402 -0.985,0.603 -1.702,0.603c-0.717,0 -1.285,-0.201 -1.703,-0.603" style="fill:#768890;fill-rule:nonzero;"/><path d="M123.873,24.477c0.329,0.298 0.493,0.705 0.493,1.223l0,5.613c0,0.768 -0.065,1.363 -0.194,1.784c-0.13,0.423 -0.354,0.759 -0.672,1.008c-0.319,0.249 -0.797,0.46 -1.434,0.632c-0.776,0.231 -1.668,0.413 -2.673,0.547c-1.006,0.134 -1.957,0.202 -2.853,0.202c-2.23,0 -4.162,-0.417 -5.795,-1.252c-1.633,-0.835 -2.887,-2.034 -3.763,-3.598c-0.877,-1.563 -1.315,-3.42 -1.315,-5.568c0,-2.111 0.434,-3.948 1.3,-5.512c0.866,-1.563 2.106,-2.767 3.718,-3.612c1.614,-0.844 3.496,-1.266 5.646,-1.266c2.768,-0 5.058,0.69 6.87,2.072c0.299,0.231 0.508,0.46 0.628,0.691c0.119,0.23 0.179,0.518 0.179,0.864c-0,0.498 -0.145,0.925 -0.433,1.28c-0.289,0.355 -0.633,0.532 -1.031,0.532c-0.259,0 -0.493,-0.038 -0.702,-0.115c-0.209,-0.076 -0.463,-0.201 -0.761,-0.374c-0.837,-0.499 -1.604,-0.854 -2.3,-1.064c-0.698,-0.212 -1.464,-0.318 -2.301,-0.318c-4.062,0 -6.093,2.274 -6.093,6.822c-0,2.341 0.527,4.086 1.583,5.238c1.055,1.151 2.648,1.726 4.779,1.726c1.155,0 2.3,-0.143 3.435,-0.431l0,-4.461l-2.748,-0c-0.577,-0 -1.026,-0.134 -1.344,-0.403c-0.319,-0.268 -0.478,-0.652 -0.478,-1.152c0,-0.498 0.159,-0.882 0.478,-1.15c0.318,-0.269 0.767,-0.403 1.344,-0.403l5.108,-0c0.557,-0 1.001,0.148 1.329,0.445" style="fill:#768890;fill-rule:nonzero;"/><path d="M134.313,34.796c-0.418,-0.403 -0.627,-0.95 -0.627,-1.641l-0,-16.146c-0,-0.672 0.209,-1.208 0.627,-1.611c0.418,-0.403 0.986,-0.605 1.703,-0.605c0.717,-0 1.284,0.202 1.702,0.605c0.419,0.403 0.628,0.939 0.628,1.611l-0,16.146c-0,0.691 -0.209,1.238 -0.628,1.641c-0.418,0.402 -0.985,0.603 -1.702,0.603c-0.717,0 -1.285,-0.201 -1.703,-0.603" style="fill:#768890;fill-rule:nonzero;"/><path d="M153.415,34.767c-0.428,-0.404 -0.642,-0.941 -0.642,-1.612l-0,-14.563l-4.839,0c-1.474,0 -2.21,-0.613 -2.21,-1.842c-0,-1.209 0.736,-1.813 2.21,-1.813l14.338,-0c1.473,-0 2.21,0.604 2.21,1.813c0,1.229 -0.737,1.842 -2.21,1.842l-4.839,0l-0,14.563c-0,0.671 -0.209,1.208 -0.628,1.612c-0.418,0.403 -0.985,0.604 -1.702,0.604c-0.697,-0 -1.26,-0.201 -1.688,-0.604" style="fill:#768890;fill-rule:nonzero;"/><path d="M174.847,27.342l6.96,-0l-3.465,-7.484l-3.495,7.484Zm14.189,6.072c-0,0.537 -0.224,0.993 -0.672,1.367c-0.448,0.374 -0.961,0.561 -1.538,0.561c-0.379,0 -0.737,-0.101 -1.076,-0.302c-0.339,-0.202 -0.597,-0.504 -0.777,-0.906l-1.583,-3.397l-10.126,0l-1.583,3.397c-0.179,0.402 -0.433,0.704 -0.762,0.906c-0.328,0.201 -0.692,0.302 -1.09,0.302c-0.577,0 -1.095,-0.187 -1.553,-0.561c-0.458,-0.374 -0.687,-0.83 -0.687,-1.367c-0,-0.268 0.079,-0.576 0.239,-0.922l8.065,-16.317c0.219,-0.461 0.547,-0.812 0.986,-1.051c0.437,-0.24 0.906,-0.36 1.404,-0.36c0.517,0 0.995,0.125 1.434,0.375c0.437,0.249 0.776,0.594 1.015,1.036l8.065,16.317c0.159,0.346 0.239,0.654 0.239,0.922" style="fill:#768890;fill-rule:nonzero;"/><path d="M197.549,34.68c-0.379,-0.364 -0.568,-0.882 -0.568,-1.554l0,-16.117c0,-0.672 0.209,-1.209 0.627,-1.612c0.419,-0.402 0.986,-0.604 1.703,-0.604c0.717,-0 1.285,0.202 1.703,0.604c0.418,0.403 0.627,0.94 0.627,1.612l0,14.562l7.647,0c1.453,0 2.18,0.615 2.18,1.843c0,1.208 -0.727,1.813 -2.18,1.813l-10.126,0c-0.697,0 -1.235,-0.182 -1.613,-0.547" style="fill:#768890;fill-rule:nonzero;"/><path d="M64.263,63.429c-0.256,-0.254 -0.384,-0.585 -0.384,-0.989l-0,-16.056c-0,-0.404 0.123,-0.725 0.37,-0.963c0.247,-0.237 0.589,-0.356 1.028,-0.356l9.811,-0c0.877,-0 1.315,0.369 1.315,1.109c0,0.739 -0.438,1.108 -1.315,1.108l-8.414,0l0,5.836l7.866,0c0.877,0 1.315,0.37 1.315,1.109c0,0.74 -0.438,1.11 -1.315,1.11l-7.866,-0l0,7.103c0,0.422 -0.123,0.756 -0.37,1.003c-0.246,0.246 -0.589,0.37 -1.027,0.37c-0.421,-0 -0.759,-0.128 -1.014,-0.384" style="fill:#768890;fill-rule:nonzero;"/><path d="M92.775,56.92l8.03,0l-4.029,-8.74l-4.001,8.74Zm13.346,5.705c0,0.334 -0.141,0.616 -0.424,0.845c-0.284,0.227 -0.599,0.343 -0.946,0.343c-0.237,-0 -0.461,-0.066 -0.671,-0.199c-0.21,-0.132 -0.37,-0.32 -0.48,-0.567l-1.809,-3.961l-10.03,0l-1.809,3.961c-0.109,0.247 -0.274,0.435 -0.493,0.567c-0.219,0.133 -0.448,0.199 -0.685,0.199c-0.366,-0 -0.69,-0.116 -0.973,-0.343c-0.284,-0.229 -0.425,-0.511 -0.425,-0.845c0,-0.142 0.045,-0.318 0.137,-0.528l7.728,-16.293c0.128,-0.282 0.334,-0.501 0.617,-0.66c0.283,-0.158 0.58,-0.238 0.891,-0.238c0.31,-0 0.607,0.08 0.89,0.238c0.284,0.159 0.489,0.378 0.617,0.66l7.728,16.293c0.092,0.21 0.137,0.386 0.137,0.528" style="fill:#768890;fill-rule:nonzero;"/><path d="M138.525,45.315c0.256,0.256 0.384,0.586 0.384,0.991l0,16.212c0,0.406 -0.114,0.723 -0.343,0.951c-0.228,0.228 -0.543,0.344 -0.945,0.344c-0.384,-0 -0.685,-0.116 -0.905,-0.344c-0.219,-0.228 -0.328,-0.545 -0.328,-0.951l-0,-12.278l-5.372,9.849c-0.347,0.617 -0.795,0.925 -1.343,0.925c-0.548,-0 -0.996,-0.308 -1.343,-0.925l-5.399,-9.743l0,12.172c0,0.406 -0.109,0.723 -0.329,0.951c-0.219,0.228 -0.53,0.344 -0.931,0.344c-0.384,-0 -0.69,-0.119 -0.918,-0.357c-0.229,-0.237 -0.343,-0.55 -0.343,-0.938l0,-16.212c0,-0.405 0.128,-0.735 0.384,-0.991c0.256,-0.255 0.584,-0.382 0.986,-0.382c0.566,-0 1.023,0.316 1.371,0.95l6.549,12.068l6.496,-12.068c0.347,-0.634 0.794,-0.95 1.343,-0.95c0.401,-0 0.73,0.127 0.986,0.382" style="fill:#768890;fill-rule:nonzero;"/><path d="M155.658,63.443c-0.256,-0.247 -0.384,-0.581 -0.384,-1.003l-0,-16.134c-0,-0.405 0.128,-0.736 0.384,-0.991c0.255,-0.255 0.593,-0.382 1.014,-0.382c0.438,-0 0.785,0.123 1.041,0.37c0.256,0.246 0.384,0.58 0.384,1.003l-0,16.134c-0,0.422 -0.124,0.756 -0.37,1.003c-0.247,0.246 -0.599,0.37 -1.055,0.37c-0.421,-0 -0.759,-0.124 -1.014,-0.37" style="fill:#768890;fill-rule:nonzero;"/><path d="M174.29,63.337c-0.246,-0.228 -0.37,-0.537 -0.37,-0.924l0,-16.107c0,-0.405 0.128,-0.735 0.384,-0.991c0.256,-0.254 0.593,-0.382 1.014,-0.382c0.438,-0 0.785,0.123 1.041,0.37c0.256,0.246 0.384,0.58 0.384,1.003l0,15.104l8.331,-0c0.421,-0 0.744,0.097 0.973,0.29c0.228,0.194 0.343,0.475 0.343,0.845c-0,0.37 -0.115,0.651 -0.343,0.845c-0.229,0.194 -0.552,0.29 -0.973,0.29l-9.783,0c-0.421,0 -0.754,-0.114 -1.001,-0.343" style="fill:#768890;fill-rule:nonzero;"/><path d="M210.18,44.933c0.329,-0 0.626,0.127 0.891,0.382c0.265,0.256 0.397,0.55 0.397,0.885c0,0.317 -0.109,0.59 -0.328,0.819l-6.468,7.763l-0,7.658c-0,0.44 -0.133,0.779 -0.397,1.016c-0.265,0.238 -0.608,0.357 -1.028,0.357c-0.421,-0 -0.759,-0.119 -1.014,-0.357c-0.256,-0.237 -0.384,-0.576 -0.384,-1.016l0,-7.658l-6.468,-7.763c-0.219,-0.229 -0.329,-0.51 -0.329,-0.845c0,-0.334 0.128,-0.625 0.384,-0.871c0.256,-0.247 0.557,-0.37 0.905,-0.37c0.365,-0 0.685,0.158 0.959,0.475l5.974,7.235l5.947,-7.235c0.256,-0.317 0.576,-0.475 0.959,-0.475" style="fill:#768890;fill-rule:nonzero;"/></g><defs><linearGradient id="_Linear1" x1="0" y1="0" x2="1" y2="0" gradientUnits="userSpaceOnUse" gradientTransform="matrix(0,63.4949,-63.4949,0,24.3004,0.317716)"><stop offset="0" style="stop-color:#f4bf02;stop-opacity:1"/><stop offset="0.34" style="stop-color:#ea8733;stop-opacity:1"/><stop offset="0.68" style="stop-color:#e26431;stop-opacity:1"/><stop offset="1" style="stop-color:#e15464;stop-opacity:1"/><stop offset="1" style="stop-color:#e15464;stop-opacity:1"/></linearGradient></defs></svg>