<?xml version="1.0" encoding="UTF-8" standalone="no"?><!DOCTYPE svg PUBLIC "-//W3C//DTD SVG 1.1//EN" "http://www.w3.org/Graphics/SVG/1.1/DTD/svg11.dtd"><svg width="100%" height="100%" viewBox="0 0 132 125" version="1.1" xmlns="http://www.w3.org/2000/svg" xmlns:xlink="http://www.w3.org/1999/xlink" xml:space="preserve" xmlns:serif="http://www.serif.com/" style="fill-rule:evenodd;clip-rule:evenodd;stroke-linejoin:round;stroke-miterlimit:2;"><g><path d="M47.389,107.724c0.033,0.306 -0.159,0.591 -0.455,0.674c-0.826,0.288 -1.692,0.441 -2.566,0.456c-2.166,-0 -3.625,-0.78 -4.378,-2.338c-1.71,1.53 -3.932,2.364 -6.226,2.338c-2.661,0.096 -5.249,-0.875 -7.19,-2.697c-3.748,-3.857 -3.748,-9.997 0,-13.854c1.941,-1.822 4.529,-2.793 7.19,-2.697c1.907,-0.03 3.773,0.554 5.324,1.664l-0,-0.525c-0.024,-0.156 0.027,-0.313 0.138,-0.425c0.11,-0.112 0.267,-0.166 0.422,-0.145l3.503,0c0.156,-0.021 0.312,0.033 0.423,0.145c0.11,0.112 0.161,0.269 0.137,0.425l0.001,12.671c-0.019,0.375 0.11,0.743 0.359,1.024c0.251,0.259 0.602,0.396 0.963,0.377c0.467,-0.008 0.933,-0.058 1.392,-0.149c0.403,-0.082 0.631,0.067 0.683,0.447l0.28,2.609Zm-13.59,-2.627c1.45,0.048 2.846,-0.552 3.809,-1.637c1.972,-2.459 1.972,-5.957 -0,-8.416c-0.961,-1.088 -2.358,-1.692 -3.809,-1.646c-1.479,-0.042 -2.903,0.558 -3.906,1.646c-2.033,2.437 -2.033,5.979 0,8.416c1.003,1.085 2.428,1.682 3.906,1.637" style="fill:#768890;fill-rule:nonzero;"/><path d="M55.349,108.854c-1.371,0.064 -2.724,-0.34 -3.835,-1.147c-0.943,-0.723 -1.483,-1.852 -1.454,-3.039l0,-22.514c-0.021,-0.156 0.033,-0.312 0.145,-0.422c0.112,-0.111 0.269,-0.162 0.424,-0.138l3.503,-0c0.155,-0.025 0.312,0.027 0.423,0.137c0.111,0.111 0.162,0.268 0.138,0.423l-0,21.262c-0.018,0.375 0.11,0.743 0.359,1.024c0.251,0.259 0.603,0.396 0.963,0.377c0.47,-0.009 0.939,-0.058 1.401,-0.149c0.394,-0.079 0.622,0.07 0.674,0.447l0.298,2.627c0.031,0.148 0.001,0.303 -0.083,0.43c-0.084,0.127 -0.215,0.215 -0.364,0.244c-0.825,0.286 -1.691,0.44 -2.565,0.455" style="fill:#768890;fill-rule:nonzero;"/><path d="M63.344,86.226c-0.739,0.005 -1.452,-0.278 -1.987,-0.788c-0.531,-0.475 -0.834,-1.153 -0.834,-1.865c0,-0.712 0.303,-1.39 0.834,-1.865c0.548,-0.518 1.278,-0.798 2.031,-0.78c0.75,-0.01 1.474,0.269 2.023,0.78c0.541,0.469 0.851,1.149 0.851,1.865c0,0.715 -0.31,1.396 -0.851,1.865c-0.55,0.508 -1.274,0.784 -2.023,0.771m2.986,22.645c-1.371,0.064 -2.724,-0.34 -3.835,-1.147c-0.943,-0.723 -1.483,-1.852 -1.454,-3.039l0,-13.923c-0.024,-0.158 0.028,-0.317 0.14,-0.429c0.113,-0.113 0.272,-0.165 0.429,-0.141l3.503,0c0.157,-0.024 0.316,0.028 0.429,0.141c0.112,0.112 0.164,0.271 0.14,0.429l0,12.671c-0.018,0.375 0.111,0.743 0.359,1.024c0.252,0.259 0.603,0.396 0.964,0.377c0.467,-0.008 0.933,-0.058 1.392,-0.149c0.403,-0.082 0.63,0.067 0.683,0.447l0.298,2.627c0.031,0.148 0.001,0.303 -0.083,0.43c-0.084,0.127 -0.215,0.215 -0.364,0.244c-0.826,0.286 -1.692,0.44 -2.566,0.455" style="fill:#768890;fill-rule:nonzero;"/><path d="M79.685,108.854c-2.182,0.103 -4.344,-0.449 -6.209,-1.585c-1.519,-0.986 -2.532,-2.585 -2.776,-4.379c-0.044,-0.402 0.14,-0.604 0.569,-0.604l3.17,0c0.294,-0.005 0.549,0.202 0.605,0.491c0.548,1.687 2.095,2.53 4.641,2.53c0.909,0.033 1.812,-0.163 2.627,-0.569c0.594,-0.253 0.989,-0.826 1.016,-1.471c-0.016,-0.75 -0.521,-1.402 -1.244,-1.603c-0.965,-0.375 -1.974,-0.622 -3.004,-0.735c-1.164,-0.149 -2.338,-0.35 -3.502,-0.604c-1.132,-0.236 -2.171,-0.793 -2.995,-1.603c-0.865,-0.906 -1.315,-2.13 -1.244,-3.38c-0.024,-1.666 0.801,-3.23 2.19,-4.151c1.706,-1.127 3.727,-1.683 5.77,-1.585c1.967,-0.067 3.909,0.445 5.587,1.471c1.411,0.841 2.374,2.266 2.627,3.888c0.053,0.403 -0.14,0.605 -0.56,0.605l-3.17,-0c-0.333,-0 -0.534,-0.114 -0.604,-0.342c-0.251,-0.704 -0.757,-1.289 -1.419,-1.637c-0.752,-0.427 -1.605,-0.641 -2.469,-0.622c-0.855,-0.04 -1.706,0.141 -2.47,0.525c-0.555,0.248 -0.916,0.794 -0.928,1.401c-0.009,0.635 0.326,1.224 0.876,1.542c0.665,0.403 1.414,0.649 2.189,0.718c0.876,0.105 1.821,0.262 2.855,0.472c0.962,0.195 1.913,0.446 2.846,0.754c0.876,0.297 1.64,0.856 2.189,1.602c0.613,0.872 0.921,1.922 0.876,2.986c0.026,1.706 -0.811,3.31 -2.225,4.265c-1.727,1.149 -3.777,1.717 -5.849,1.62" style="fill:#768890;fill-rule:nonzero;"/><path d="M100.097,108.854c-2.679,0.128 -5.298,-0.818 -7.277,-2.627c-3.677,-3.927 -3.677,-10.032 0,-13.959c3.775,-3.178 9.178,-3.533 13.337,-0.875c1.6,1.109 2.703,2.8 3.074,4.711c0.078,0.403 -0.088,0.604 -0.491,0.604l-3.599,0c-0.296,0.013 -0.556,-0.198 -0.604,-0.49c-0.296,-0.821 -0.873,-1.509 -1.629,-1.944c-0.856,-0.505 -1.835,-0.76 -2.828,-0.736c-1.477,-0.063 -2.911,0.507 -3.941,1.568c-1.986,2.397 -1.986,5.868 -0,8.266c1.03,1.06 2.464,1.631 3.941,1.568c0.993,0.023 1.972,-0.231 2.828,-0.736c0.758,-0.433 1.336,-1.122 1.629,-1.944c0.052,-0.291 0.309,-0.499 0.604,-0.49l3.582,-0c0.402,-0 0.569,0.201 0.49,0.604c-0.371,1.911 -1.474,3.602 -3.074,4.711c-1.78,1.218 -3.904,1.832 -6.059,1.751" style="fill:#768890;fill-rule:nonzero;"/><path d="M128.907,106.209c-4.225,3.531 -10.372,3.531 -14.597,0c-3.704,-3.916 -3.704,-10.042 -0,-13.958c4.225,-3.531 10.372,-3.531 14.597,-0c3.703,3.916 3.703,10.042 0,13.958m-11.261,-2.863c2.242,2.053 5.682,2.053 7.925,-0c2.009,-2.376 2.009,-5.856 -0,-8.232c-2.243,-2.053 -5.683,-2.053 -7.925,0c-2.009,2.376 -2.009,5.856 -0,8.232" style="fill:#768890;fill-rule:nonzero;"/><path d="M20.138,81.848c0.314,-0 0.569,0.254 0.569,0.569l0,16.296c0,3.17 -0.931,5.649 -2.793,7.435c-1.857,1.751 -4.44,2.68 -7.733,2.68c-2.51,0.1 -4.975,-0.688 -6.961,-2.225c-1.814,-1.46 -2.943,-3.606 -3.118,-5.928c-0.052,-0.403 0.14,-0.604 0.569,-0.604l3.696,-0c0.147,-0.01 0.292,0.042 0.4,0.143c0.108,0.101 0.169,0.243 0.169,0.391c0.171,1.162 0.802,2.206 1.751,2.898c1.107,0.779 2.44,1.17 3.792,1.113c1.478,0.057 2.905,-0.55 3.888,-1.656c1.021,-1.223 1.546,-2.786 1.471,-4.378l0,-11.323c0,-1.506 -1.611,-1.839 -2.627,-1.9l-0.289,0c-0.122,0.002 -0.24,-0.044 -0.327,-0.13c-0.088,-0.086 -0.137,-0.203 -0.137,-0.325l0,-2.575c0,-0.122 0.049,-0.239 0.137,-0.325c0.087,-0.086 0.205,-0.132 0.327,-0.13l7.216,-0.026Z" style="fill:#768890;fill-rule:nonzero;"/><path d="M12.362,118.408c1.223,-0.08 2.339,0.698 2.688,1.874l-0.981,-0c-0.316,-0.643 -0.993,-1.028 -1.707,-0.972c-1.144,0.072 -2.034,1.021 -2.034,2.167c-0,1.146 0.89,2.095 2.034,2.167c0.463,0.052 0.928,-0.084 1.292,-0.377c0.363,-0.292 0.595,-0.718 0.643,-1.182l-1.865,0l-0,-0.875l2.802,-0c0.07,1.751 -0.814,3.31 -2.872,3.31c-1.603,-0.121 -2.842,-1.457 -2.842,-3.065c0,-1.608 1.239,-2.944 2.842,-3.065" style="fill:#768890;fill-rule:nonzero;"/><path d="M19.744,124.555c-1.699,0.005 -3.079,-1.369 -3.083,-3.068c-0.003,-1.699 1.373,-3.078 3.071,-3.079c1.699,-0.002 3.077,1.375 3.077,3.073c0.043,0.826 -0.266,1.632 -0.85,2.218c-0.584,0.586 -1.389,0.897 -2.215,0.856m-0,-0.946c0.872,0.036 1.678,-0.462 2.036,-1.258c0.358,-0.796 0.196,-1.73 -0.409,-2.359c-0.606,-0.628 -1.533,-0.826 -2.342,-0.498c-0.809,0.328 -1.337,1.114 -1.334,1.987c-0.046,0.564 0.152,1.119 0.544,1.526c0.392,0.408 0.94,0.627 1.505,0.602" style="fill:#768890;fill-rule:nonzero;"/><path d="M28.299,121.359c0.606,0.184 1.008,0.759 0.972,1.392c0.022,0.498 -0.176,0.98 -0.543,1.317c-0.366,0.338 -0.863,0.497 -1.357,0.434l-2.68,0l0,-5.989l2.435,-0c0.484,-0.065 0.972,0.087 1.334,0.414c0.363,0.327 0.563,0.797 0.549,1.285c0.02,0.497 -0.259,0.959 -0.71,1.173m-2.627,-2.005l0,1.681l1.375,-0c0.569,-0 0.963,-0.237 0.972,-0.823c0.009,-0.587 -0.394,-0.876 -0.972,-0.876l-1.375,0.018Zm0,2.495l0,1.752l1.629,-0c0.25,0.03 0.501,-0.049 0.688,-0.216c0.188,-0.168 0.295,-0.408 0.293,-0.66c0.011,-0.273 -0.106,-0.535 -0.315,-0.709c-0.231,-0.151 -0.506,-0.219 -0.78,-0.193l-1.515,0.026Z" style="fill:#768890;fill-rule:nonzero;"/><path d="M33.659,123.671l-0,0.805l-2.899,0l0,-0.805l0.954,-0l0,-4.388l-0.875,0l-0,-0.797l2.741,0l-0,0.797l-0.876,0l0,4.388l0.955,-0Z" style="fill:#768890;fill-rule:nonzero;"/><path d="M39.14,119.362l-2.653,0l0,1.585l2.504,0l0,0.876l-2.504,-0l0,1.751l2.697,0l0,0.902l-3.695,0l-0,-5.99l3.651,0l0,0.876Z" style="fill:#768890;fill-rule:nonzero;"/><path d="M45.997,124.336l0,0.14l-1.016,0l-1.488,-2.084l-1.314,-0l0,2.084l-0.963,0l-0,-5.99l2.478,0c0.54,-0.039 1.072,0.15 1.466,0.521c0.395,0.371 0.616,0.891 0.609,1.432c0.015,0.806 -0.49,1.531 -1.252,1.795l1.48,2.102Zm-2.356,-2.767c0.301,0.01 0.591,-0.105 0.804,-0.318c0.212,-0.212 0.327,-0.503 0.317,-0.803c0.008,-0.297 -0.109,-0.584 -0.321,-0.792c-0.213,-0.208 -0.503,-0.317 -0.8,-0.303l-1.48,0l0,2.216l1.48,-0Z" style="fill:#768890;fill-rule:nonzero;"/><path d="M48.677,120.404l0.07,1.9l-0,2.172l-0.99,0l0,-6.007l0.359,-0l3.643,4.028l-0.07,-1.83l-0,-2.181l0.99,0l-0,5.999l-0.342,-0l-3.66,-4.081Z" style="fill:#768890;fill-rule:nonzero;"/><path d="M57.609,124.555c-1.699,0.005 -3.08,-1.369 -3.083,-3.068c-0.003,-1.699 1.372,-3.078 3.071,-3.079c1.699,-0.002 3.076,1.375 3.076,3.073c0.044,0.826 -0.265,1.632 -0.849,2.218c-0.584,0.586 -1.389,0.897 -2.215,0.856m-0,-0.946c0.872,0.036 1.678,-0.462 2.036,-1.258c0.358,-0.796 0.196,-1.73 -0.41,-2.359c-0.605,-0.628 -1.532,-0.826 -2.341,-0.498c-0.809,0.328 -1.337,1.114 -1.334,1.987c-0.046,0.564 0.152,1.119 0.544,1.526c0.392,0.408 0.94,0.627 1.505,0.602" style="fill:#768890;fill-rule:nonzero;"/><path d="M67.627,118.495c1.588,0.086 2.833,1.4 2.833,2.991c-0,1.591 -1.245,2.904 -2.833,2.99l-2.163,0l-0,-5.981l2.163,0Zm-0,5.079c1.101,-0.071 1.957,-0.985 1.957,-2.088c0,-1.104 -0.856,-2.017 -1.957,-2.089l-1.165,0l-0,4.177l1.165,0Z" style="fill:#768890;fill-rule:nonzero;"/><path d="M76.094,119.362l-2.644,0l-0,1.585l2.496,0l-0,0.876l-2.496,-0l-0,1.751l2.697,0l-0,0.902l-3.695,0l-0,-5.99l3.642,0l0,0.876Z" style="fill:#768890;fill-rule:nonzero;"/><path d="M79.133,123.583l2.575,-0l-0,0.893l-3.573,0l-0,-5.99l0.998,0l0,5.097Z" style="fill:#768890;fill-rule:nonzero;"/><path d="M89.624,119.362l-2.645,0l0,1.585l2.496,0l-0,0.876l-2.496,-0l0,1.751l2.697,0l0,0.902l-3.695,0l-0,-5.99l3.643,0l-0,0.876Z" style="fill:#768890;fill-rule:nonzero;"/><path d="M92.225,122.777c0.043,0.675 0.779,0.876 1.436,0.876c0.657,0 1.383,-0.149 1.383,-0.876c0,-0.727 -0.814,-0.875 -1.506,-0.937c-1.094,-0.096 -2.18,-0.446 -2.18,-1.637c-0,-1.191 1.086,-1.752 2.25,-1.752c1.165,0 2.216,0.517 2.242,1.752l-0.919,-0c-0,-0.648 -0.745,-0.876 -1.332,-0.876c-0.586,0 -1.261,0.184 -1.261,0.876c0,0.692 0.675,0.762 1.367,0.875c1.217,0.141 2.329,0.377 2.329,1.752c-0,1.375 -1.235,1.751 -2.356,1.751c-1.121,0 -2.399,-0.525 -2.425,-1.751l0.972,-0.053Z" style="fill:#768890;fill-rule:nonzero;"/><path d="M97.269,119.371l-0,-0.885l4.457,0l-0,0.885l-1.743,-0l0,5.105l-0.972,0l0,-5.105l-1.742,-0Z" style="fill:#768890;fill-rule:nonzero;"/><path d="M103.819,123.233l-0.578,1.243l-1.042,0l-0,-0.131l2.767,-5.902l0.464,-0l2.758,5.902l0,0.131l-1.033,0l-0.595,-1.243l-2.741,-0Zm0.332,-0.832l2.093,-0l-1.042,-2.4l-1.051,2.4Z" style="fill:#768890;fill-rule:nonzero;"/><path d="M111.875,118.495c1.589,0.086 2.833,1.4 2.833,2.991c0,1.591 -1.244,2.904 -2.833,2.99l-2.172,0l0,-5.981l2.172,0Zm0,5.079c1.101,-0.071 1.958,-0.985 1.958,-2.088c-0,-1.104 -0.857,-2.017 -1.958,-2.089l-1.165,0l0,4.177l1.165,0Z" style="fill:#768890;fill-rule:nonzero;"/><path d="M119.38,124.555c-1.699,0.005 -3.079,-1.369 -3.083,-3.068c-0.003,-1.699 1.372,-3.078 3.071,-3.079c1.699,-0.002 3.077,1.375 3.077,3.073c0.043,0.826 -0.266,1.632 -0.85,2.218c-0.584,0.586 -1.389,0.897 -2.215,0.856m-0,-0.946c0.872,0.036 1.678,-0.462 2.036,-1.258c0.358,-0.796 0.196,-1.73 -0.41,-2.359c-0.605,-0.628 -1.532,-0.826 -2.341,-0.498c-0.809,0.328 -1.337,1.114 -1.334,1.987c-0.043,0.563 0.156,1.117 0.547,1.523c0.392,0.407 0.938,0.627 1.502,0.605" style="fill:#768890;fill-rule:nonzero;"/><path d="M65.271,9.358l-0,3.31c0.441,-0.095 0.898,-0.095 1.34,0l-0,-3.31c-0.433,-0.14 -0.899,-0.14 -1.331,0" style="fill:#768890;fill-rule:nonzero;"/><path d="M51.418,10.234c0.021,0.207 0.151,0.387 0.341,0.473c1.369,0.647 2.864,0.988 4.378,0.998c2.041,-0.015 4.029,-0.651 5.701,-1.822c2.437,-1.61 5.564,-1.742 8.127,-0.341c-0.58,0.544 -1.351,0.837 -2.146,0.814l-0.508,0l0,1.174l0.508,-0c1.405,0.033 2.728,-0.658 3.503,-1.83c0.046,-0.09 0.07,-0.189 0.07,-0.289l-0,-7.006c0.001,-0.193 -0.094,-0.373 -0.254,-0.482c-3.028,-2.006 -6.963,-2.006 -9.992,0c-2.614,1.863 -6.038,2.145 -8.923,0.736c-0.263,-0.125 -0.578,-0.035 -0.735,0.21c-0.16,0.245 -0.115,0.57 0.105,0.762l3.818,3.301l-3.783,2.776c-0.167,0.125 -0.257,0.327 -0.237,0.535m5.333,-2.829c0.147,-0.103 0.237,-0.268 0.245,-0.447c0.007,-0.179 -0.067,-0.353 -0.201,-0.472l-2.242,-1.918c2.562,0.419 5.186,-0.188 7.303,-1.69c2.539,-1.674 5.813,-1.739 8.416,-0.167l-0,5.64c-2.905,-1.454 -6.365,-1.243 -9.072,0.551c-2.319,1.642 -5.29,2.056 -7.969,1.113l3.52,-2.61Z" style="fill:#768890;fill-rule:nonzero;"/><path d="M65.262,6.468l1.34,0l-0,-1.269l1.27,-0l-0,-1.34l-1.27,-0l-0,-1.27l-1.34,0l0,1.27l-1.27,-0l0,1.34l1.27,-0l0,1.269Z" style="fill:#768890;fill-rule:nonzero;"/><path d="M94.501,54.85c0.421,-0.499 0.876,-1.007 1.296,-1.497c1.892,-1.972 3.495,-4.201 4.764,-6.621c1.006,-2.024 1.401,-4.296 1.139,-6.541c-0.476,-3.586 -2.805,-6.657 -6.13,-8.082c0.553,-0.908 0.788,-1.975 0.665,-3.03c-0.032,-0.242 -0.198,-0.446 -0.429,-0.526c-0.232,-0.078 -0.489,-0.021 -0.665,0.149c-0.683,0.698 -1.713,0.928 -2.627,0.587l-0.097,-0c-1.397,-0.536 -2.882,-0.809 -4.378,-0.806c-0.586,0.006 -1.171,0.05 -1.751,0.131c0.004,-0.029 0.004,-0.058 -0,-0.087c0,-0.444 -0.071,-0.884 -0.211,-1.305c-0.059,-0.185 -0.201,-0.331 -0.385,-0.394c-0.175,-0.082 -0.377,-0.082 -0.552,0c-0.267,0.148 -0.569,0.224 -0.875,0.219l-0.141,-0c-0.359,-0 -0.665,-0.053 -0.945,-0.053c-0.454,0.002 -0.908,0.034 -1.358,0.097c-0.44,0.063 -0.876,0.157 -1.304,0.28c-0.841,0.241 -1.645,0.595 -2.391,1.051c-0.371,0.225 -0.725,0.476 -1.06,0.753c-0.334,0.273 -0.653,0.566 -0.954,0.876c-0.184,0.201 -0.377,0.411 -0.543,0.621c-0.166,0.211 -0.324,0.447 -0.473,0.675c-0.306,0.464 -0.578,0.954 -0.875,1.418l-0.106,0.14l-0.052,0.079c-0.02,0.02 -0.035,0.044 -0.044,0.07l-0.28,0.368l-0.324,0.385c-0.175,0.193 -0.35,0.368 -0.534,0.552l-0.21,0.193c-0.125,0.121 -0.257,0.235 -0.394,0.341l-0.106,0.096l-2.014,-1.304l-0.306,-1.874c0.131,-0.202 0.254,-0.412 0.368,-0.613l0.07,-0.123l0.157,-0.341l0.044,-0.097c0.044,-0.105 0.079,-0.201 0.123,-0.297l0.052,-0.123c0,-0 0,-0.088 0.044,-0.14l0.552,-0.114l0.437,-3.188l-0.595,-0.14l-0,-0.306c-0,-0.105 -0,-0.263 -0.079,-0.394c-0.088,-0.38 -0.223,-0.748 -0.403,-1.095c-0.002,-0.023 -0.002,-0.046 0,-0.07c-0.481,-0.944 -1.31,-1.666 -2.312,-2.014l-0.078,0c-0,0 -0,-0.061 0.043,-0.087c0.026,-0.072 0.055,-0.142 0.088,-0.211c0.372,-0.839 1.022,-1.525 1.839,-1.944c0.081,0.192 0.152,0.388 0.21,0.587c0.099,0.225 0.335,0.357 0.578,0.324c0.167,-0.014 0.327,-0.072 0.464,-0.166c0.224,-0.165 0.411,-0.374 0.552,-0.613c0.757,-1.205 0.871,-2.705 0.307,-4.011c-0.403,-1.021 -1.357,-1.72 -2.452,-1.795c-0.369,-0.012 -0.736,0.053 -1.078,0.193c-0.513,-1.088 -1.608,-1.782 -2.811,-1.782c-1.202,0 -2.297,0.694 -2.81,1.781c-0.342,-0.139 -0.709,-0.204 -1.078,-0.192c-1.095,0.075 -2.049,0.774 -2.451,1.795c-0.557,1.306 -0.446,2.801 0.297,4.011c0.141,0.242 0.332,0.451 0.561,0.613c0.137,0.094 0.297,0.152 0.464,0.166c0.269,0.038 0.525,-0.126 0.604,-0.385c0.059,-0.2 0.129,-0.396 0.21,-0.587c0.818,0.418 1.467,1.105 1.839,1.944c0.033,0.069 0.062,0.139 0.088,0.21l-0,0.088l-0.079,-0c-0.998,0.351 -1.822,1.072 -2.303,2.014l-0,0.07c-0.18,0.347 -0.315,0.714 -0.403,1.095c-0,0.131 -0.053,0.262 -0.079,0.394c-0.026,0.131 0,0.201 -0.044,0.306l-0.586,0.14l0.438,3.188l0.551,0.114c0.01,0.048 0.024,0.095 0.044,0.14l0.053,0.122c-0,0.097 0.078,0.193 0.122,0.298l0.044,0.096l0.158,0.342l0.07,0.122c0.113,0.215 0.239,0.422 0.376,0.622l-0.341,1.927l-1.962,1.357c-0.38,-0.31 -0.739,-0.643 -1.077,-0.998c-0.053,-0.062 -0.114,-0.123 -0.166,-0.193c-0.219,-0.245 -0.421,-0.49 -0.613,-0.753c-0.01,-0.026 -0.025,-0.05 -0.044,-0.07l-0.053,-0.079l-0.105,-0.14c-0.306,-0.464 -0.578,-0.954 -0.875,-1.419c-0.149,-0.227 -0.298,-0.455 -0.473,-0.674c-0.175,-0.219 -0.359,-0.42 -0.543,-0.622c-0.299,-0.312 -0.618,-0.604 -0.955,-0.875c-0.334,-0.277 -0.688,-0.528 -1.059,-0.753c-0.746,-0.456 -1.55,-0.81 -2.391,-1.051c-0.428,-0.124 -0.864,-0.217 -1.305,-0.28c-0.449,-0.063 -0.903,-0.096 -1.357,-0.097c-0.28,0 -0.587,0 -0.946,0.053l-0.201,-0c-0.306,0.005 -0.608,-0.071 -0.876,-0.219c-0.174,-0.084 -0.377,-0.084 -0.552,-0c-0.179,0.066 -0.318,0.212 -0.376,0.394c-0.123,0.376 -0.188,0.769 -0.193,1.165l0,0.131c-0.671,-0.116 -1.35,-0.175 -2.031,-0.175c-1.497,-0.003 -2.981,0.27 -4.379,0.805l-0.087,0c-0.915,0.339 -1.944,0.109 -2.628,-0.586c-0.176,-0.17 -0.433,-0.228 -0.665,-0.149c-0.23,0.079 -0.393,0.284 -0.42,0.525c-0.123,1.056 0.111,2.123 0.665,3.03c-3.324,1.427 -5.652,4.497 -6.13,8.083c-0.262,2.244 0.133,4.517 1.139,6.541c1.269,2.42 2.872,4.649 4.764,6.62c0.429,0.491 0.875,0.999 1.295,1.498l0.447,0.516c1.095,1.27 2.338,2.715 2.338,4.09c0.058,0.644 -0.174,1.281 -0.633,1.738c-0.458,0.456 -1.096,0.686 -1.74,0.626c-0.299,-0.002 -0.595,-0.055 -0.876,-0.157c-0.115,-0.04 -0.236,-0.064 -0.359,-0.07c-0.725,-0.085 -1.402,0.379 -1.585,1.085c-0.118,0.001 -0.236,0.018 -0.35,0.053c-0.601,0.168 -0.994,0.745 -0.928,1.366l-0,0.07c0.432,3.695 3.523,6.506 7.242,6.585l0.105,0c1.658,-0.017 3.265,-0.58 4.571,-1.602l0,-0c0.231,0.235 0.546,0.37 0.876,0.376c0.267,0.004 0.528,-0.079 0.744,-0.236c1.005,-0.712 1.834,-1.643 2.426,-2.723c0.043,-0.088 0.087,-0.176 0.14,-0.263l0.122,0.219c0.088,0.149 0.176,0.297 0.272,0.438c3.604,5.155 9.498,8.225 15.788,8.225c6.291,0 12.185,-3.07 15.789,-8.225c0.096,-0.141 0.184,-0.289 0.272,-0.438l0.131,-0.219l0.131,0.263c0.592,1.08 1.421,2.011 2.426,2.723c0.217,0.156 0.477,0.239 0.744,0.236c0.345,0.002 0.676,-0.134 0.92,-0.376c1.307,1.02 2.913,1.584 4.571,1.602l0.105,0c3.721,-0.079 6.815,-2.889 7.251,-6.585l-0,-0.087c0.103,-0.598 -0.231,-1.185 -0.797,-1.402c-0.114,-0.034 -0.232,-0.052 -0.35,-0.052c-0.227,-0.654 -0.881,-1.06 -1.568,-0.972c-0.122,0.007 -0.243,0.031 -0.359,0.07c-0.281,0.102 -0.577,0.155 -0.876,0.158c-0.643,0.06 -1.28,-0.17 -1.737,-0.627c-0.457,-0.457 -0.687,-1.094 -0.627,-1.738c-0,-1.375 1.235,-2.82 2.329,-4.089c0.158,-0.175 0.307,-0.342 0.447,-0.517m-6.41,-25.141c1.335,0.001 2.658,0.244 3.905,0.718l0.106,0c0.684,0.251 1.425,0.3 2.136,0.14c0.235,-0.056 0.464,-0.135 0.683,-0.236c-0.096,0.465 -0.29,0.903 -0.569,1.287c-0.833,-0.159 -1.675,-0.262 -2.522,-0.306c-3.193,0.001 -6.156,1.658 -7.829,4.378c-0.185,-0.604 -0.752,-1.009 -1.383,-0.99l-3.766,0c2.028,-3.133 5.506,-5.025 9.239,-5.026m1.331,15.762c0.03,0.104 0.065,0.207 0.105,0.307c0.602,1.485 2.067,2.437 3.669,2.382c0.047,0.004 0.094,0.004 0.14,-0c-2.776,2.837 -6.655,4.378 -9.308,7.303l-0,-10.088l0.28,-0.271c0.753,-0.78 1.436,-1.647 2.207,-2.417c1.085,-1.222 2.545,-2.051 4.15,-2.356c0.662,-0.134 1.349,-0.054 1.962,0.228c0.329,0.185 0.595,0.466 0.762,0.805c0.325,0.679 0.181,1.49 -0.359,2.014l-0.167,0.132c-0.26,0.179 -0.561,0.29 -0.875,0.324c-0.21,0.025 -0.423,0.001 -0.622,-0.07c-0.231,-0.089 -0.48,-0.122 -0.727,-0.097c-0.386,0.039 -0.739,0.232 -0.981,0.535c-0.299,0.385 -0.39,0.892 -0.245,1.357m-18.958,-17.768l-0.123,1.13l-0.613,0.122l-0.596,0.123l0,-1.751l0.754,0.184l0.604,0.14m-4.571,3.389l3.257,-0.701c-0.129,0.258 -0.276,0.506 -0.438,0.744c-0.106,0.17 -0.226,0.331 -0.359,0.482c-0.532,0.854 -1.467,1.372 -2.473,1.372c-1.007,0 -1.942,-0.518 -2.474,-1.372c-0.127,-0.153 -0.244,-0.314 -0.351,-0.482c-0.162,-0.238 -0.308,-0.486 -0.437,-0.744l3.275,0.701Zm-1.944,-1.69l-0,-2.268l1.304,-0.307l0,2.837l-1.304,-0.262Zm2.548,0.262l-0,-2.837l1.305,0.307l-0,2.268l-1.305,0.262Zm-4.247,-10.315c0.239,-0.365 0.564,-0.665 0.946,-0.876c-0.933,0.116 -1.799,0.541 -2.461,1.208c-0.337,-0.788 -0.337,-1.68 -0,-2.469c0.211,-0.576 0.745,-0.971 1.357,-1.007c0.453,-0.011 0.901,0.101 1.296,0.324c0.988,0.528 1.7,1.457 1.953,2.548c0.105,-1.034 -0.193,-2.069 -0.832,-2.89c-0.099,-0.137 -0.211,-0.266 -0.333,-0.385c0.259,-0.731 0.95,-1.219 1.725,-1.219c0.776,0 1.467,0.488 1.726,1.219c-0.122,0.119 -0.234,0.248 -0.333,0.385c-0.639,0.821 -0.937,1.856 -0.832,2.89c0.253,-1.091 0.965,-2.02 1.953,-2.548c0.394,-0.224 0.842,-0.336 1.296,-0.324c0.6,0.044 1.12,0.434 1.331,0.998c0.333,0.79 0.333,1.68 -0,2.47c-0.662,-0.667 -1.529,-1.093 -2.461,-1.209c0.38,0.21 0.702,0.511 0.937,0.876c-1.073,0.556 -1.925,1.461 -2.417,2.566l-0.105,0.236c0,0.061 -0.044,0.114 -0.061,0.166c-0.359,-0.148 -0.683,-0.35 -1.034,-0.525c-0.35,0.175 -0.674,0.377 -1.033,0.525c0,-0.052 -0.044,-0.105 -0.07,-0.166c-0.026,-0.061 -0.061,-0.158 -0.096,-0.236c-0.495,-1.105 -1.35,-2.01 -2.426,-2.566m1.892,4.615c0.28,-0.105 0.595,-0.184 0.875,-0.298c0.302,-0.129 0.595,-0.278 0.876,-0.447c0.28,0.171 0.573,0.32 0.876,0.447c0.289,0.114 0.595,0.193 0.875,0.298c1.021,0.386 1.78,1.257 2.023,2.32c-3.424,-0.875 -3.66,-0.875 -3.748,-0.875c-0.087,-0 -0.324,0.061 -3.748,0.875c0.241,-1.065 1.001,-1.937 2.023,-2.32m-2.627,4.93l-0.122,-1.13l0.595,-0.14l0.762,-0.184l-0,1.752l-0.596,-0.123l-0.639,-0.175Zm1.419,5.438l0.192,-1.103l0.088,0.07c0.72,0.705 1.681,1.111 2.688,1.138c1.008,-0.027 1.968,-0.433 2.689,-1.138l0.087,-0.097l0.193,1.13l2.137,1.471l-0.316,0.193c-0.909,0.527 -1.892,0.917 -2.916,1.156c-0.615,0.162 -1.247,0.25 -1.882,0.262c-0.549,-0.017 -1.094,-0.087 -1.629,-0.21c-1.053,-0.218 -2.066,-0.596 -3.004,-1.121c-0.157,-0.087 -0.315,-0.175 -0.464,-0.271l2.137,-1.48Zm-25.579,-3.695c0.711,0.159 1.453,0.11 2.137,-0.141l0.105,0c4.846,-1.838 10.319,-0.043 13.135,4.309l-3.766,-0c-0.628,-0.018 -1.192,0.382 -1.383,0.981c-1.674,-2.719 -4.637,-4.376 -7.829,-4.379c-0.846,0.045 -1.689,0.148 -2.522,0.307c-0.279,-0.384 -0.473,-0.823 -0.569,-1.288c0.22,0.101 0.448,0.18 0.683,0.237m11.778,32.567l0,0.306c0.004,0.023 0.004,0.047 0,0.07c-0.009,0.109 -0.027,0.218 -0.052,0.324c-0.096,0.487 -0.242,0.963 -0.438,1.419l-0,0.061l-0.114,0.245c-0.033,0.054 -0.062,0.11 -0.088,0.167c-0.504,0.945 -1.22,1.76 -2.093,2.382c0.838,-1.16 1.288,-2.554 1.288,-3.985c-0,-0.637 -0.092,-1.271 -0.272,-1.883c-0.111,1.395 -0.533,2.748 -1.234,3.959c-1.088,1.906 -3.112,3.085 -5.307,3.091l-0.088,-0c-3.06,-0.098 -5.594,-2.409 -5.972,-5.447l0,-0.053c1.086,1.529 3.005,2.226 4.819,1.752c1.814,-0.475 3.145,-2.023 3.342,-3.888c-0.381,0.964 -1.083,1.768 -1.987,2.276l-0.053,0.001c-0.254,0.137 -0.521,0.249 -0.797,0.332c-1.684,0.761 -3.666,0.032 -4.457,-1.637c0.095,0.029 0.189,0.064 0.28,0.105c0.198,0.087 0.403,0.157 0.613,0.21c0.228,0.045 0.46,0.069 0.692,0.07c0.21,0.013 0.421,0.013 0.631,0l0.542,0c0.306,-0.071 0.601,-0.182 0.876,-0.333c0.277,-0.141 0.531,-0.324 0.753,-0.543c0.221,-0.217 0.41,-0.465 0.561,-0.735c0.157,-0.274 0.275,-0.569 0.35,-0.876c0.085,-0.338 0.126,-0.685 0.122,-1.033c0,-2.084 -1.821,-3.941 -3.073,-5.429c-2.102,-2.496 -4.484,-4.861 -5.894,-7.882c-0.891,-1.803 -1.247,-3.824 -1.024,-5.823c0.515,-4.373 4.196,-7.683 8.599,-7.732c4.035,-0.08 7.44,2.984 7.785,7.005l-0,3.599c-0.881,-1.072 -1.876,-2.044 -2.969,-2.898c-1.751,-1.217 -4.238,-2.102 -6.217,-0.999c-0.813,0.457 -1.397,1.234 -1.608,2.142c-0.212,0.907 -0.032,1.862 0.496,2.631c0.778,1.059 2.147,1.501 3.398,1.095c-0,-0 -0.719,2.285 -3.433,1.287c-0.202,-0.07 -0.394,-0.167 -0.569,-0.289c-0.325,-0.227 -0.619,-0.495 -0.876,-0.797c-0.135,-0.156 -0.261,-0.32 -0.377,-0.49c-0.164,-0.238 -0.308,-0.49 -0.429,-0.754c-0.142,-0.327 -0.253,-0.667 -0.332,-1.015c-0.188,-1.056 -0.038,-2.144 0.429,-3.109c0.773,-1.481 2.112,-2.586 3.713,-3.065c1.742,-0.447 3.588,-0.226 5.175,0.622c0.228,0.131 0.438,0.271 0.648,0.42c0.184,0.124 0.354,0.268 0.508,0.429c-0.832,-1.751 -3.021,-2.697 -4.878,-2.784c-2.134,-0.064 -4.174,0.88 -5.508,2.548c-1.208,1.556 -1.692,3.554 -1.331,5.49c0.377,2.102 2.058,3.871 3.398,5.465c2.487,2.75 4.693,5.743 6.585,8.932c0.678,1.248 1.019,2.651 0.989,4.072c0.004,2.874 -2.251,5.245 -5.122,5.385c2.34,0.409 4.678,-0.732 5.797,-2.828c2.425,-4.519 -1.41,-9.108 -4.09,-12.426c-0.157,-0.202 -1.016,-1.183 -1.383,-1.62l3.082,2.224c0.631,0.464 1.252,0.928 1.874,1.427c0.919,0.728 1.755,1.553 2.496,2.461c1.477,1.785 2.244,4.051 2.154,6.366m-10.894,-15.027c0.044,0.005 0.088,0.005 0.132,0c1.608,0.063 3.082,-0.89 3.686,-2.381c0.041,-0.101 0.076,-0.203 0.106,-0.307c0.15,-0.465 0.058,-0.974 -0.246,-1.357c-0.241,-0.303 -0.595,-0.496 -0.98,-0.535c-0.247,-0.024 -0.496,0.009 -0.727,0.097c-0.199,0.071 -0.412,0.095 -0.622,0.07c-0.315,-0.031 -0.617,-0.143 -0.876,-0.324c-0.055,-0.037 -0.108,-0.078 -0.157,-0.123c-0.543,-0.522 -0.692,-1.333 -0.368,-2.014c0.167,-0.339 0.432,-0.62 0.762,-0.805c0.613,-0.282 1.3,-0.362 1.961,-0.228c1.606,0.305 3.066,1.133 4.151,2.355c0.771,0.771 1.454,1.638 2.207,2.417l0.28,0.263l-0,10.176c-2.653,-2.951 -6.533,-4.475 -9.309,-7.304Zm42.909,15.027c0.004,0.023 0.004,0.047 0,0.07c0.032,0.386 0.091,0.769 0.175,1.147l0,0c-0.218,0.491 -0.467,0.968 -0.744,1.428l-0.245,0.403c-3.335,4.733 -8.764,7.55 -14.554,7.55c-5.791,-0 -11.219,-2.817 -14.554,-7.55l-0.245,-0.403c-0.278,-0.46 -0.526,-0.937 -0.745,-1.428c0.085,-0.378 0.144,-0.761 0.176,-1.147l-0,-0.07c0.113,-2.021 -0.388,-4.03 -1.437,-5.762l0,-21.419l6.016,-0l-0.761,-1.287l-0,0.07c-1.58,-2.891 -4.256,-5.025 -7.426,-5.92c-0.013,-0.14 -0.013,-0.281 -0,-0.42c-0.005,-0.076 -0.005,-0.152 -0,-0.228c0.332,0.077 0.676,0.098 1.015,0.061c0.274,-0.03 0.549,-0.044 0.824,-0.044l0.21,0c0.455,0.012 0.909,0.059 1.357,0.141c0.434,0.085 0.861,0.202 1.279,0.35c0.413,0.15 0.814,0.332 1.199,0.543c0.382,0.209 0.748,0.446 1.095,0.709c0.341,0.269 0.663,0.561 0.963,0.876c0.323,0.326 0.616,0.681 0.876,1.059c0.315,0.447 0.587,0.929 0.876,1.384c0.306,0.439 0.646,0.855 1.015,1.243c0.246,0.281 0.517,0.552 0.788,0.806l0.412,0.359l0,0.044l0.403,0.324l0.061,0.044l0.412,0.306l0.052,0c0.149,0.105 0.289,0.202 0.438,0.289c0.6,0.381 1.233,0.706 1.892,0.972l0.105,0.044l0.359,0.131c0.286,0.112 0.578,0.209 0.875,0.289c1.622,0.514 3.362,0.514 4.983,0c0.297,-0.08 0.589,-0.177 0.876,-0.289l0.368,-0.131l0.096,-0.044c0.659,-0.266 1.292,-0.591 1.891,-0.972l0.429,-0.289l0.053,0l0.412,-0.306l0.061,-0.044l0.123,-0.105l0.096,-0.088l0.175,-0.131l0.044,-0.044l0.341,-0.306l0.062,-0.053c0.271,-0.254 0.542,-0.525 0.796,-0.806l0.482,-0.578l0.096,-0.131c0.132,-0.175 0.254,-0.341 0.377,-0.525l-0,-0.105c0.087,-0.123 0.175,-0.254 0.254,-0.386c0.192,-0.315 0.394,-0.63 0.604,-0.937c0.26,-0.378 0.553,-0.733 0.876,-1.059c0.3,-0.315 0.622,-0.607 0.963,-0.876c0.347,-0.263 0.713,-0.5 1.095,-0.709c0.385,-0.211 0.786,-0.393 1.199,-0.543c0.42,-0.148 0.851,-0.265 1.288,-0.351c0.445,-0.082 0.896,-0.129 1.348,-0.14l0.21,0c0.275,-0 0.55,0.014 0.823,0.044c0.34,0.037 0.684,0.016 1.016,-0.061c0.005,0.076 0.005,0.152 0,0.228c0,0.122 0,0.236 0,0.359c-3.278,0.842 -6.06,3.008 -7.68,5.981l0,-0.07l-0.761,1.287l6.016,-0l-0,21.445c-1.045,1.734 -1.545,3.741 -1.437,5.762m9.265,-3.747c-0.003,0.348 0.038,0.695 0.123,1.033c0.078,0.306 0.196,0.6 0.35,0.876c0.151,0.27 0.34,0.518 0.561,0.735c0.223,0.216 0.477,0.399 0.753,0.543c0.275,0.15 0.57,0.262 0.875,0.333l0.543,-0c0.21,0.013 0.421,0.013 0.631,-0c0.45,0.008 0.897,-0.088 1.305,-0.28c0.096,-0 0.183,-0.079 0.28,-0.106c-0.74,1.561 -2.536,2.316 -4.169,1.752c-0.276,-0.084 -0.543,-0.195 -0.796,-0.333l-0.053,-0c-0.902,-0.509 -1.601,-1.313 -1.979,-2.277c0.119,1.943 1.471,3.591 3.353,4.086c1.883,0.496 3.871,-0.273 4.931,-1.905l-0,0.052c-0.378,3.039 -2.912,5.35 -5.972,5.447l-0.088,0c-2.194,-0.006 -4.218,-1.185 -5.306,-3.091c-0.698,-1.213 -1.12,-2.564 -1.235,-3.958l-0,-0c-0.18,0.611 -0.272,1.245 -0.272,1.882c0,1.431 0.45,2.825 1.288,3.985c-0.866,-0.641 -1.571,-1.474 -2.058,-2.435c-0.026,-0.057 -0.055,-0.112 -0.088,-0.166c0,-0.079 -0.07,-0.166 -0.114,-0.245l0,-0.061c-0.195,-0.456 -0.342,-0.932 -0.438,-1.419c-0.025,-0.107 -0.042,-0.215 -0.052,-0.324c-0.004,-0.023 -0.004,-0.047 0,-0.07l0,-0.307c-0.09,-2.314 0.677,-4.581 2.154,-6.366c0.74,-0.908 1.577,-1.733 2.496,-2.461c0.622,-0.499 1.243,-0.963 1.874,-1.427l3.109,-2.242c-0.368,0.438 -1.226,1.419 -1.384,1.62c-2.68,3.319 -6.515,7.882 -4.089,12.426c1.124,2.09 3.457,3.229 5.797,2.829c-2.875,-0.136 -5.135,-2.508 -5.132,-5.386c-0.03,-1.42 0.311,-2.823 0.99,-4.072c1.892,-3.191 4.101,-6.184 6.594,-8.932c1.331,-1.593 3.012,-3.362 3.388,-5.464c0.362,-1.936 -0.123,-3.935 -1.331,-5.49c-1.333,-1.668 -3.373,-2.612 -5.508,-2.549c-1.856,0.088 -4.045,1.025 -4.877,2.785c0.157,-0.157 0.327,-0.3 0.508,-0.429c0.21,-0.149 0.42,-0.289 0.648,-0.42c1.586,-0.848 3.433,-1.07 5.175,-0.622c1.6,0.479 2.939,1.584 3.713,3.065c0.666,1.286 0.701,2.808 0.096,4.124c-0.12,0.263 -0.264,0.515 -0.429,0.753c-0.113,0.173 -0.239,0.337 -0.377,0.491c-0.258,0.3 -0.552,0.568 -0.875,0.797c-0.178,0.118 -0.369,0.215 -0.569,0.289c-2.724,0.998 -3.442,-1.288 -3.442,-1.288c1.25,0.406 2.62,-0.035 3.398,-1.094c0.528,-0.768 0.709,-1.722 0.5,-2.63c-0.21,-0.907 -0.792,-1.685 -1.603,-2.143c-1.988,-1.103 -4.51,-0.219 -6.218,0.998c-1.097,0.853 -2.096,1.825 -2.977,2.899l-0,-3.608c0.357,-4.015 3.755,-7.072 7.785,-7.005c4.402,0.049 8.084,3.359 8.599,7.732c0.223,1.999 -0.133,4.02 -1.025,5.823c-1.41,2.986 -3.783,5.351 -5.884,7.881c-1.261,1.489 -3.083,3.346 -3.083,5.43" style="fill:#768890;fill-rule:nonzero;"/><path d="M68.169,58.248l0,-0.21c0,-0.324 -0.262,-0.587 -0.586,-0.587l-0,1.804l2.163,-0.701c0.073,0.452 0.288,0.869 0.613,1.191c0.26,0.238 0.454,0.54 0.56,0.876l-1.594,0.692c-0.163,0.491 -0.163,1.023 0,1.515c-0.405,-0.059 -0.788,-0.222 -1.112,-0.473l0,-0.561c0,-0.329 -0.266,-0.595 -0.595,-0.595l-0,1.813c0.534,0.379 1.167,0.595 1.821,0.621c0.306,0.005 0.552,0.255 0.552,0.561c0.045,0.005 0.089,-0.01 0.123,-0.04c0.033,-0.03 0.052,-0.073 0.052,-0.118c-0.001,-0.157 -0.025,-0.313 -0.07,-0.464c-0.039,-0.149 -0.059,-0.302 -0.061,-0.455c-0,-0.258 0.057,-0.512 0.166,-0.745l0.289,-0.07c0.14,-0.013 0.281,-0.013 0.42,0c0.21,-0.001 0.419,0.025 0.622,0.079c0.132,0.037 0.267,0.06 0.403,0.07l0.201,0c0.242,0.003 0.481,-0.036 0.71,-0.114l0.114,0c0.026,0 -0.062,0.132 -0.062,0.132c-0.188,0.158 -0.42,0.256 -0.665,0.28c-0.111,0.009 -0.222,0.009 -0.333,-0c0.236,0.543 0.42,1.007 0.447,1.077c0.245,0.081 0.503,0.122 0.761,0.123c0.259,-0.001 0.516,-0.043 0.762,-0.123c-0.067,0.405 -0.232,0.787 -0.481,1.112l-0.561,0c-0.327,0.005 -0.591,0.269 -0.595,0.596l1.821,-0c0.389,-0.533 0.606,-1.172 0.622,-1.831c0.014,-0.304 0.265,-0.543 0.569,-0.543c0.002,-0.045 -0.014,-0.09 -0.046,-0.123c-0.031,-0.033 -0.075,-0.052 -0.12,-0.052c-0.158,0.001 -0.314,0.025 -0.465,0.07c-0.149,0.036 -0.301,0.054 -0.455,0.053c-0.255,0.004 -0.507,-0.053 -0.735,-0.167c-0.079,-0.228 -0.118,-0.468 -0.114,-0.709c-0.002,-0.21 0.028,-0.42 0.087,-0.622l0,-0.096c0.148,0.042 0.302,0.063 0.456,0.061c1.044,0 1.891,-0.846 1.891,-1.891c0.013,-0.304 -0.053,-0.605 -0.193,-0.876l-0.166,-0.35c-0.271,-0.517 -0.393,-1.099 -0.35,-1.681c0.034,-0.542 0.206,-1.067 0.499,-1.524l0.053,-0c0.11,-0.047 0.216,-0.106 0.315,-0.175c0.225,-0.186 0.367,-0.454 0.394,-0.745l-0,-0.157c0.008,-0.064 0.008,-0.129 -0,-0.193l-0.132,0.088l-0.201,0.149l-0.193,0.166l-0.183,0.175c-0.053,0.061 -0.114,0.123 -0.167,0.193l-0.044,0.052l-0.052,0.07c-0.361,0.518 -0.576,1.123 -0.622,1.752c-0.045,0.658 0.095,1.316 0.403,1.9l0.158,0.342c0.1,0.204 0.151,0.429 0.148,0.656c0,0.818 -0.662,1.48 -1.48,1.48l-0.052,0c-0.394,-0.019 -0.761,-0.208 -1.007,-0.516l-0.123,-0.176c-0.299,-0.412 -0.459,-0.909 -0.455,-1.418l0,-0c0.165,0.166 0.361,0.297 0.578,0.385c-0,0 0.061,0 0.053,-0.052c-0.107,-0.298 -0.128,-0.62 -0.062,-0.929c0.034,-0.178 0.09,-0.352 0.167,-0.516c-0.003,0.107 0.031,0.212 0.096,0.297l0.079,0c0.044,-0.287 0.136,-0.565 0.271,-0.823l0.088,-0.157c0.044,-0.088 0.094,-0.173 0.149,-0.254l0.157,-0.272l0,-0.63c0.122,-0.778 -0.139,-1.567 -0.7,-2.119l0.131,-0l-0,-0.062c-0.496,-0.391 -1.123,-0.576 -1.751,-0.516l-0.132,-0c-0.045,0.004 -0.082,0.035 -0.096,0.078l-0.079,0.263l-0.07,0c-0.198,0.031 -0.372,0.15 -0.473,0.324l-0.674,0.28c-0.062,0.017 -0.103,0.076 -0.096,0.14c0.005,0.033 0.02,0.064 0.043,0.088c0,0.105 0.079,0.517 0.254,0.543l0.21,-0.061c0.193,-0.053 0.438,-0.097 0.508,-0c0.07,0.096 0.149,0.324 -0.043,0.394l-0.535,-0c0,-0 -0.105,0.315 0.097,0.411c0.156,-0.046 0.318,-0.07 0.481,-0.07l0.307,0c0.253,-0.026 0.499,-0.098 0.727,-0.21c-0.13,0.176 -0.315,0.302 -0.526,0.359l-0.297,0.088c-0.052,0.009 -0.103,0.027 -0.149,0.052c-0.32,0.139 -0.605,0.349 -0.832,0.613l-2.084,-0.981l-0,-0.385c0.002,-0.24 -0.145,-0.456 -0.368,-0.543c-0.067,-0.037 -0.142,-0.058 -0.219,-0.061l-0,1.445l1.751,1.261l0.683,-0.184c0.026,-0.012 0.055,-0.013 0.081,-0.003c0.027,0.01 0.048,0.03 0.059,0.055c0.012,0.024 0.015,0.051 0.006,0.075c-0.008,0.025 -0.026,0.045 -0.049,0.057l-1.866,0.972Z" style="fill:#768890;fill-rule:nonzero;"/><path d="M59.281,63.852c-0.245,0.082 -0.503,0.123 -0.762,0.123c-0.258,-0.001 -0.516,-0.042 -0.761,-0.123c0.066,0.405 0.232,0.787 0.481,1.112l0.561,0c0.327,0.005 0.59,0.269 0.595,0.596l-1.821,-0c-0.382,-0.536 -0.598,-1.173 -0.622,-1.83c-0.014,-0.303 -0.258,-0.543 -0.561,-0.552c-0.002,-0.043 0.014,-0.086 0.043,-0.117c0.03,-0.032 0.072,-0.05 0.115,-0.049c0.157,0.002 0.312,0.023 0.464,0.061c0.148,0.043 0.301,0.063 0.456,0.061c0.257,0.003 0.512,-0.054 0.744,-0.166c0.072,-0.23 0.107,-0.469 0.105,-0.71c0,-0.209 -0.026,-0.418 -0.079,-0.621c-0.005,-0.032 -0.005,-0.065 0,-0.097c-0.148,0.042 -0.301,0.063 -0.455,0.062c-1.045,-0 -1.892,-0.847 -1.892,-1.892c-0.013,-0.303 0.054,-0.605 0.193,-0.875l0.166,-0.351c0.537,-1.016 0.48,-2.243 -0.149,-3.205l-0.052,0c-0.111,-0.047 -0.217,-0.106 -0.315,-0.175c-0.223,-0.188 -0.364,-0.455 -0.394,-0.744c0.004,-0.032 0.004,-0.065 -0,-0.097l-0,-0.061c-0.005,-0.064 -0.005,-0.128 -0,-0.193l0.131,0.088l0.201,0.149l0.193,0.166l0.184,0.175c0.052,0.062 0.114,0.123 0.166,0.193l0.044,0.053l0.053,0.07c0.751,1.093 0.836,2.512 0.219,3.686l-0.158,0.342c-0.097,0.205 -0.148,0.429 -0.149,0.657c0,0.817 0.663,1.48 1.48,1.48l0.149,-0c0.394,-0.02 0.761,-0.208 1.007,-0.517c0.052,-0.061 0.087,-0.123 0.131,-0.175c0.293,-0.415 0.449,-0.911 0.447,-1.419l-0,0c-0.168,0.167 -0.367,0.298 -0.587,0.385c0,0 -0.061,0 -0.044,-0.052c0.098,-0.3 0.119,-0.619 0.062,-0.928c-0.038,-0.179 -0.096,-0.353 -0.175,-0.517c0.002,0.107 -0.032,0.212 -0.097,0.298l-0.07,-0c-0.047,-0.288 -0.142,-0.567 -0.28,-0.823l-0.088,-0.158c-0.044,-0.088 -0.094,-0.172 -0.149,-0.254c-0.054,-0.088 -0.104,-0.178 -0.148,-0.271l-0,-0.543c-0.201,-0.809 0.023,-1.663 0.595,-2.268l-0.131,-0c-0,-0 -0.062,-0 -0,-0.062c0.496,-0.39 1.123,-0.575 1.751,-0.516l0.131,-0c0.043,0.006 0.078,0.037 0.088,0.078l0.079,0.263l0.105,0c0.198,0.031 0.372,0.15 0.473,0.324l0.674,0.28c0.06,0.02 0.1,0.077 0.096,0.14c-0.001,0.034 -0.017,0.066 -0.043,0.088c-0,0.105 -0.079,0.517 -0.246,0.543l-0.219,-0.061c-0.183,-0.053 -0.437,-0.097 -0.507,-0c-0.07,0.096 -0.149,0.324 0.043,0.394l0.535,-0c-0,-0 0.105,0.315 -0.088,0.411c-0.157,-0.045 -0.319,-0.069 -0.482,-0.07l-0.341,0c-0.253,-0.028 -0.499,-0.099 -0.727,-0.21c0.129,0.176 0.315,0.302 0.525,0.359l0.298,0.088c0.052,0.012 0.101,0.029 0.149,0.052c0.321,0.137 0.606,0.347 0.832,0.613l2.084,-0.981l0,-0.376c-0.003,-0.242 0.143,-0.461 0.368,-0.552c0.07,-0.039 0.148,-0.06 0.228,-0.061l-0,1.418l-1.752,1.244l-0.735,-0.201c-0,-0 -0.105,-0 -0.14,0.052c-0.035,0.037 -0.035,0.094 -0,0.131l1.979,0.999l-0,-0.21c-0,-0.158 0.063,-0.308 0.174,-0.418c0.112,-0.111 0.264,-0.172 0.421,-0.169l0,1.813l-2.172,-0.71c-0.073,0.452 -0.288,0.869 -0.613,1.191c-0.257,0.24 -0.45,0.541 -0.56,0.876l1.594,0.692c0.163,0.491 0.163,1.023 -0,1.515c0.407,-0.06 0.793,-0.223 1.12,-0.473l0.001,-0.561c-0.003,-0.157 0.058,-0.308 0.168,-0.42c0.111,-0.112 0.261,-0.175 0.418,-0.175l0,1.812c-0.534,0.38 -1.167,0.596 -1.821,0.622c-0.306,0.005 -0.552,0.255 -0.552,0.561c-0.045,0.005 -0.089,-0.01 -0.123,-0.04c-0.033,-0.03 -0.052,-0.073 -0.052,-0.118c0.001,-0.157 0.025,-0.313 0.07,-0.464c0.038,-0.149 0.059,-0.302 0.061,-0.455c0,-0.258 -0.057,-0.512 -0.166,-0.745l-0.289,-0.07c-0.14,-0.013 -0.281,-0.013 -0.42,0c-0.091,-0.009 -0.181,-0.009 -0.272,0l0.14,-0.876c0.011,-0.05 -0.02,-0.1 -0.07,-0.113c-0.079,-0 -0.122,0.061 -0.122,0.061l-1.139,2.513Z" style="fill:#768890;fill-rule:nonzero;"/><path d="M71.944,43.317c-0.771,-1.47 -2.273,-2.413 -3.932,-2.469c-0.654,-0.354 -1.385,-0.541 -2.128,-0.543c-0.741,0.001 -1.469,0.188 -2.119,0.543c-1.663,0.053 -3.168,0.996 -3.941,2.469c-1.214,0.619 -1.976,1.869 -1.97,3.232c-0.002,1.047 0.456,2.043 1.252,2.723c0.58,1.488 1.907,2.556 3.485,2.802c1.412,0.238 2.457,1.442 2.496,2.872l0,7.829c-0.049,1.155 -0.95,2.093 -2.102,2.189l-0.455,0c-0.166,-0.002 -0.327,0.062 -0.445,0.179c-0.119,0.117 -0.186,0.277 -0.186,0.443l7.952,0c-0,-0.343 -0.279,-0.622 -0.622,-0.622l-0.464,0c-1.159,-0.08 -2.068,-1.027 -2.102,-2.189l0,-7.855c0.021,-1.372 0.981,-2.55 2.321,-2.846l0.114,0c1.581,-0.236 2.916,-1.297 3.502,-2.785c0.905,-0.778 1.365,-1.955 1.229,-3.141c-0.137,-1.185 -0.853,-2.226 -1.912,-2.778m-0.052,4.983l-0.228,0.192l-0.114,0.28c-0.363,0.935 -1.145,1.645 -2.11,1.918c-0.339,0.071 -0.67,0.173 -0.99,0.307l-0.175,0.175l-0.166,0.14l-0.202,0.149c-0.565,0.384 -1.234,0.589 -1.917,0.586c-0.701,0.022 -1.391,-0.171 -1.979,-0.551l-0.202,-0.149l-0.166,-0.14l-0.167,-0.175c-0.319,-0.133 -0.65,-0.236 -0.989,-0.307c-0.962,-0.276 -1.739,-0.985 -2.102,-1.918l-0.114,-0.28l-0.227,-0.192c-0.597,-0.518 -0.9,-1.297 -0.809,-2.082c0.091,-0.785 0.564,-1.474 1.264,-1.842l0.333,-0.175l0.175,-0.332c0.574,-1.079 1.678,-1.772 2.899,-1.822l0.289,0l0.253,-0.131c0.961,-0.525 2.122,-0.525 3.083,-0l0.254,0.131l0.289,0c1.221,0.048 2.325,0.742 2.898,1.822l0.176,0.332l0.332,0.175c0.7,0.368 1.173,1.057 1.264,1.842c0.091,0.785 -0.211,1.564 -0.808,2.082" style="fill:#768890;fill-rule:nonzero;"/><path d="M73.546,38.694c-0.846,0.476 -1.746,0.853 -2.679,1.121l7.942,-0l0,17.251c0.001,0.996 -0.114,1.989 -0.341,2.959c-0.256,1.102 -0.656,2.165 -1.191,3.162l-0.193,0.341c-2.308,4.001 -6.576,6.467 -11.196,6.467c-4.619,-0 -8.887,-2.466 -11.195,-6.467l-0.193,-0.341c-0.535,-0.997 -0.936,-2.06 -1.191,-3.162c-0.228,-0.97 -0.342,-1.963 -0.342,-2.959l0,-17.251l8.083,-0c-0.958,-0.268 -1.88,-0.647 -2.75,-1.13l-6.462,-0l-0,18.389c0.001,1.085 0.125,2.166 0.368,3.223c0.273,1.191 0.7,2.342 1.269,3.424c0.07,0.122 0.132,0.245 0.211,0.368c2.514,4.344 7.152,7.019 12.172,7.019c5.019,-0 9.658,-2.675 12.172,-7.019c0.07,-0.123 0.14,-0.246 0.201,-0.368c1.106,-2.044 1.681,-4.332 1.673,-6.655l-0,-18.39l-6.358,0.018Z" style="fill:#768890;fill-rule:nonzero;"/><path d="M82.102,38.983l-0.281,-0.289l-0.542,0.543l-0.543,-0.543l-0.281,0.289l0.543,0.534l-0.543,0.543l0.281,0.28l0.543,-0.534l0.542,0.534l0.281,-0.28l-0.543,-0.543l0.543,-0.534Z" style="fill:#768890;fill-rule:nonzero;"/><path d="M51.251,38.983l-0.28,-0.289l-0.543,0.543l-0.543,-0.543l-0.289,0.289l0.543,0.534l-0.534,0.543l0.28,0.28l0.543,-0.534l0.543,0.534l0.28,-0.28l-0.543,-0.543l0.543,-0.534Z" style="fill:#768890;fill-rule:nonzero;"/><path d="M82.102,52.188l-0.281,-0.289l-0.542,0.543l-0.543,-0.543l-0.281,0.289l0.543,0.543l-0.543,0.543l0.281,0.28l0.543,-0.543l0.542,0.543l0.281,-0.28l-0.543,-0.543l0.543,-0.543Z" style="fill:#768890;fill-rule:nonzero;"/><path d="M51.251,52.188l-0.28,-0.289l-0.543,0.543l-0.543,-0.543l-0.289,0.289l0.543,0.543l-0.534,0.543l0.28,0.28l0.543,-0.543l0.543,0.543l0.28,-0.28l-0.543,-0.543l0.543,-0.543Z" style="fill:#768890;fill-rule:nonzero;"/><path d="M54.334,65.919l-0.281,-0.289l-0.543,0.543l-0.542,-0.543l-0.281,0.289l0.543,0.534l-0.543,0.543l0.281,0.28l0.542,-0.534l0.543,0.534l0.281,-0.28l-0.543,-0.543l0.543,-0.534Z" style="fill:#768890;fill-rule:nonzero;"/><path d="M79.089,65.919l-0.289,-0.289l-0.543,0.543l-0.543,-0.543l-0.28,0.289l0.543,0.534l-0.543,0.543l0.289,0.28l0.543,-0.534l0.534,0.534l0.289,-0.28l-0.543,-0.543l0.543,-0.534Z" style="fill:#768890;fill-rule:nonzero;"/><path d="M66.69,71.917l-0.281,-0.28l-0.543,0.543l-0.543,-0.543l-0.28,0.28l0.543,0.543l-0.543,0.543l0.28,0.28l0.543,-0.543l0.543,0.543l0.281,-0.28l-0.543,-0.543l0.543,-0.543Z" style="fill:#768890;fill-rule:nonzero;"/></g></svg>