<?xml version="1.0" encoding="UTF-8" standalone="no"?><!DOCTYPE svg PUBLIC "-//W3C//DTD SVG 1.1//EN" "http://www.w3.org/Graphics/SVG/1.1/DTD/svg11.dtd"><svg width="100%" height="100%" viewBox="0 0 221 55" version="1.1" xmlns="http://www.w3.org/2000/svg" xmlns:xlink="http://www.w3.org/1999/xlink" xml:space="preserve" xmlns:serif="http://www.serif.com/" style="fill-rule:evenodd;clip-rule:evenodd;stroke-linejoin:round;stroke-miterlimit:2;"><g><path d="M50.505,0.231c-8.881,0.007 -17.417,3.442 -23.828,9.589c-2.119,-2.052 -4.498,-3.819 -7.075,-5.254c-5.121,-2.86 -10.887,-4.367 -16.752,-4.379l-2.785,0l0,42.445l2.785,-0c4.902,0.007 9.723,1.257 14.011,3.634c2.909,1.604 5.522,3.695 7.723,6.182l2.085,2.365l2.084,-2.365c5.49,-6.244 13.403,-9.82 21.717,-9.816l2.785,-0l0.043,-42.401l-2.793,0Zm-44.862,5.71c3.953,0.378 7.784,1.571 11.253,3.502c2.604,1.451 4.967,3.298 7.005,5.473l0,29.318c-1.355,-1.054 -2.789,-2.003 -4.29,-2.837c-4.3,-2.39 -9.064,-3.83 -13.968,-4.221l0,-31.235Zm23.828,8.967c4.782,-5.12 11.274,-8.31 18.249,-8.967l-0.044,31.235c-4.903,0.394 -9.666,1.833 -13.967,4.221c-1.482,0.826 -2.898,1.762 -4.238,2.802l-0,-29.291Z" style="fill:#768890;fill-rule:nonzero;"/><path d="M90.962,16.887c0.015,0.132 -0.033,0.264 -0.129,0.357c-0.096,0.093 -0.23,0.135 -0.362,0.116l-9.405,-0l0,4.15l8.171,0c0.332,0 0.499,0.158 0.499,0.473l-0,2.4c0.021,0.137 -0.025,0.277 -0.123,0.376c-0.099,0.098 -0.239,0.144 -0.376,0.123l-8.171,-0l0,3.967l9.405,-0c0.324,-0 0.491,0.157 0.491,0.464l-0,2.399c0.02,0.136 -0.025,0.274 -0.121,0.372c-0.096,0.098 -0.233,0.145 -0.37,0.127l-12.977,0c-0.351,0 -0.526,-0.166 -0.526,-0.499l0,-17.251c0,-0.333 0.175,-0.499 0.526,-0.499l12.977,-0c0.137,-0.018 0.274,0.029 0.37,0.127c0.096,0.098 0.141,0.236 0.121,0.372l-0,2.426Z" style="fill:#768890;fill-rule:nonzero;"/><path d="M110.236,31.8c0.034,0.125 0.01,0.26 -0.067,0.366c-0.076,0.106 -0.197,0.171 -0.327,0.177c-0.653,0.2 -1.332,0.306 -2.015,0.315c-1.62,-0 -2.714,-0.543 -3.283,-1.646c-1.178,1.117 -2.757,1.711 -4.379,1.646c-1.835,0.073 -3.621,-0.603 -4.947,-1.874c-2.559,-2.742 -2.559,-6.996 -0,-9.738c1.323,-1.276 3.11,-1.957 4.947,-1.883c1.318,-0.024 2.607,0.385 3.669,1.165l0,-6.909c-0.021,-0.138 0.025,-0.277 0.123,-0.376c0.099,-0.099 0.239,-0.144 0.376,-0.123l2.951,-0c0.137,-0.018 0.274,0.029 0.37,0.127c0.097,0.098 0.141,0.236 0.121,0.372l-0,14.887c-0,0.665 0.292,0.998 0.876,0.998c0.262,0.005 0.523,-0.021 0.779,-0.079c0.368,-0.035 0.56,0.105 0.578,0.42l0.228,2.155Zm-9.694,-2.19c0.908,0.028 1.781,-0.351 2.382,-1.033c1.203,-1.571 1.203,-3.753 -0,-5.324c-0.598,-0.686 -1.473,-1.065 -2.382,-1.033c-0.913,-0.023 -1.789,0.355 -2.4,1.033c-1.25,1.554 -1.25,3.77 0,5.324c0.619,0.682 1.505,1.06 2.426,1.033" style="fill:#768890;fill-rule:nonzero;"/><path d="M128.301,31.8c0.023,0.124 -0.007,0.253 -0.081,0.355c-0.074,0.103 -0.187,0.171 -0.313,0.188c-0.642,0.196 -1.308,0.302 -1.979,0.315c-1.69,-0 -2.855,-0.499 -3.503,-1.515c-1.228,1.061 -2.819,1.604 -4.44,1.515c-1.52,0.066 -2.999,-0.506 -4.08,-1.576c-1.07,-1.128 -1.633,-2.643 -1.559,-4.195l0,-6.813c-0.017,-0.137 0.03,-0.274 0.127,-0.372c0.098,-0.097 0.235,-0.144 0.372,-0.127l2.925,0c0.136,-0.018 0.273,0.029 0.37,0.127c0.096,0.098 0.141,0.236 0.12,0.372l0,6.296c-0.035,0.782 0.232,1.547 0.745,2.137c0.52,0.547 1.251,0.844 2.005,0.814c0.77,0.034 1.521,-0.244 2.084,-0.77c0.534,-0.545 0.816,-1.288 0.779,-2.049l0,-6.428c-0.017,-0.137 0.03,-0.274 0.128,-0.372c0.097,-0.097 0.235,-0.144 0.372,-0.127l2.916,0c0.137,-0.017 0.274,0.03 0.372,0.127c0.097,0.098 0.144,0.235 0.127,0.372l-0,8.197c-0,0.683 0.289,1.024 0.876,1.024c0.27,0.005 0.541,-0.021 0.805,-0.079c0.133,-0.034 0.273,-0.008 0.385,0.072c0.111,0.079 0.182,0.204 0.193,0.34l0.254,2.172Z" style="fill:#768890;fill-rule:nonzero;"/><path d="M137.207,32.658c-1.927,0.103 -3.816,-0.561 -5.254,-1.848c-2.627,-2.735 -2.627,-7.055 -0,-9.79c1.434,-1.293 3.325,-1.961 5.254,-1.857c1.558,-0.048 3.091,0.4 4.378,1.279c1.155,0.814 1.942,2.051 2.189,3.441c0.053,0.351 -0.096,0.526 -0.446,0.526l-2.794,-0c-0.252,-0.009 -0.471,-0.178 -0.542,-0.421c-0.199,-0.507 -0.563,-0.933 -1.034,-1.208c-0.53,-0.312 -1.136,-0.47 -1.751,-0.455c-0.933,-0.043 -1.839,0.317 -2.487,0.989c-1.274,1.52 -1.274,3.735 -0,5.254c0.655,0.66 1.558,1.013 2.487,0.972c0.612,0.015 1.218,-0.136 1.751,-0.437c0.482,-0.268 0.847,-0.705 1.025,-1.226c0.14,-0.281 0.315,-0.421 0.543,-0.421l2.793,0c0.35,0 0.499,0.175 0.447,0.526c-0.245,1.392 -1.033,2.629 -2.189,3.441c-1.286,0.883 -2.82,1.331 -4.379,1.279" style="fill:#768890;fill-rule:nonzero;"/><path d="M162.996,31.8c0.028,0.128 -0.001,0.262 -0.08,0.366c-0.079,0.105 -0.201,0.169 -0.332,0.177c-0.635,0.197 -1.296,0.303 -1.961,0.315c-1.603,-0 -2.697,-0.526 -3.293,-1.594c-1.208,1.061 -2.771,1.63 -4.378,1.594c-1.833,0.071 -3.615,-0.606 -4.939,-1.874c-2.567,-2.739 -2.567,-6.999 -0,-9.738c1.32,-1.275 3.104,-1.955 4.939,-1.883c1.331,-0.042 2.637,0.368 3.704,1.165l-0,-0.289c-0.018,-0.136 0.029,-0.273 0.127,-0.37c0.098,-0.096 0.236,-0.141 0.372,-0.12l2.864,-0c0.136,-0.021 0.273,0.024 0.371,0.12c0.099,0.097 0.146,0.234 0.128,0.37l-0,8.197c-0,0.683 0.289,1.024 0.875,1.024c0.274,0.004 0.547,-0.022 0.815,-0.079c0.35,-0.035 0.534,0.105 0.551,0.421l0.237,2.198Zm-9.685,-2.19c0.908,0.028 1.781,-0.351 2.382,-1.033c1.203,-1.571 1.203,-3.753 -0,-5.324c-0.598,-0.686 -1.473,-1.065 -2.382,-1.033c-0.922,-0.032 -1.81,0.347 -2.426,1.033c-1.25,1.554 -1.25,3.77 0,5.324c0.618,0.683 1.505,1.061 2.426,1.033" style="fill:#768890;fill-rule:nonzero;"/><path d="M171.928,32.658c-1.908,0.096 -3.778,-0.558 -5.21,-1.822c-2.627,-2.735 -2.627,-7.055 -0,-9.79c2.746,-2.26 6.635,-2.493 9.632,-0.578c1.158,0.813 1.947,2.05 2.198,3.442c0.053,0.35 -0.096,0.525 -0.447,0.525l-2.793,0c-0.255,-0.007 -0.477,-0.176 -0.552,-0.42c-0.195,-0.51 -0.56,-0.936 -1.033,-1.209c-1.378,-0.767 -3.094,-0.551 -4.238,0.534c-1.274,1.52 -1.274,3.735 -0,5.255c0.653,0.657 1.552,1.01 2.478,0.972c0.612,0.013 1.217,-0.139 1.751,-0.438c0.48,-0.268 0.842,-0.705 1.016,-1.226c0.083,-0.238 0.3,-0.403 0.552,-0.421l2.793,0c0.35,0 0.499,0.176 0.447,0.526c-0.248,1.393 -1.039,2.631 -2.198,3.441c-1.285,0.885 -2.82,1.334 -4.379,1.279" style="fill:#768890;fill-rule:nonzero;"/><path d="M185.072,16.624c-0.943,0.841 -2.367,0.841 -3.31,-0c-0.426,-0.396 -0.668,-0.951 -0.668,-1.532c0,-0.582 0.242,-1.137 0.668,-1.533c0.952,-0.818 2.358,-0.818 3.31,0c0.426,0.396 0.668,0.951 0.668,1.533c-0,0.581 -0.242,1.136 -0.668,1.532m-3.117,15.622c-0.138,0.021 -0.278,-0.024 -0.376,-0.123c-0.099,-0.099 -0.145,-0.238 -0.124,-0.376l0,-11.673c-0.021,-0.138 0.025,-0.277 0.124,-0.376c0.098,-0.098 0.238,-0.144 0.376,-0.123l2.924,0c0.138,-0.021 0.278,0.025 0.376,0.123c0.099,0.099 0.145,0.238 0.123,0.376l0,11.638c0.022,0.138 -0.024,0.277 -0.123,0.376c-0.098,0.099 -0.238,0.144 -0.376,0.123l-2.924,0.035Z" style="fill:#768890;fill-rule:nonzero;"/><path d="M200.738,30.836c-3.03,2.474 -7.382,2.474 -10.412,0c-1.347,-1.269 -2.073,-3.063 -1.988,-4.912c-0.079,-1.846 0.642,-3.637 1.979,-4.913c3.034,-2.463 7.379,-2.463 10.412,0c1.331,1.279 2.049,3.068 1.971,4.913c0.088,1.844 -0.628,3.636 -1.962,4.912m-7.697,-2.329c1.417,1.272 3.565,1.272 4.982,0c1.274,-1.463 1.274,-3.642 0,-5.105c-1.408,-1.297 -3.574,-1.297 -4.982,-0c-1.274,1.463 -1.274,3.642 -0,5.105m1.182,-10.981c-0.147,0.01 -0.29,-0.056 -0.377,-0.175c-0.082,-0.122 -0.082,-0.281 0,-0.403l1.752,-3.205c0.098,-0.231 0.327,-0.377 0.578,-0.368l3.082,0c0.145,-0.022 0.29,0.039 0.377,0.158c0.061,0.105 -0,0.245 -0.088,0.438l-2.224,3.266c-0.138,0.19 -0.361,0.298 -0.596,0.289l-2.504,-0Z" style="fill:#768890;fill-rule:nonzero;"/><path d="M214.513,19.163c1.533,-0.067 3.026,0.504 4.124,1.577c1.073,1.126 1.639,2.641 1.568,4.194l-0,6.778c0.021,0.138 -0.025,0.277 -0.124,0.376c-0.098,0.099 -0.238,0.144 -0.376,0.123l-2.916,0c-0.35,0 -0.525,-0.166 -0.525,-0.499l0,-6.261c0.039,-0.782 -0.228,-1.548 -0.744,-2.137c-0.519,-0.544 -1.246,-0.841 -1.997,-0.814c-0.775,-0.035 -1.532,0.243 -2.102,0.77c-0.542,0.541 -0.832,1.285 -0.796,2.05l-0,6.392c0.021,0.138 -0.025,0.277 -0.124,0.376c-0.098,0.099 -0.238,0.144 -0.376,0.123l-2.924,0c-0.134,0.012 -0.266,-0.037 -0.358,-0.135c-0.092,-0.097 -0.135,-0.231 -0.115,-0.364l-0,-8.161c0.054,-0.285 -0.036,-0.579 -0.241,-0.784c-0.205,-0.205 -0.499,-0.295 -0.784,-0.241c-0.191,0.016 -0.381,0.042 -0.569,0.079c-0.385,-0 -0.578,-0.14 -0.578,-0.412l0,-2.145c-0.034,-0.277 0.148,-0.535 0.42,-0.596c0.603,-0.221 1.241,-0.328 1.883,-0.315c1.277,-0.12 2.503,0.526 3.126,1.646c1.232,-1.154 2.886,-1.75 4.571,-1.646" style="fill:#768890;fill-rule:nonzero;"/></g></svg>