<?xml version="1.0" encoding="UTF-8" standalone="no"?><!DOCTYPE svg PUBLIC "-//W3C//DTD SVG 1.1//EN" "http://www.w3.org/Graphics/SVG/1.1/DTD/svg11.dtd"><svg width="100%" height="100%" viewBox="0 0 265 38" version="1.1" xmlns="http://www.w3.org/2000/svg" xmlns:xlink="http://www.w3.org/1999/xlink" xml:space="preserve" xmlns:serif="http://www.serif.com/" style="fill-rule:evenodd;clip-rule:evenodd;stroke-linejoin:round;stroke-miterlimit:2;"><g><g><g><g><g><path d="M27.263,27.732c0.204,0.205 0.261,0.515 0.144,0.78c-0.187,0.247 -0.494,0.373 -0.801,0.327l-6.985,-0c-0.466,0.014 -0.904,-0.221 -1.15,-0.618l-6,-7.968l-4.353,-0l-0,7.642c0.036,0.26 -0.052,0.523 -0.238,0.709c-0.186,0.186 -0.449,0.274 -0.709,0.238l-5.84,-0c-0.653,-0 -0.98,-0.327 -0.98,-0.947l0,-26.869c0,-0.634 0.327,-0.96 0.98,-0.96l12.127,-0c3.808,-0 6.807,0.882 8.997,2.645c2.191,1.764 3.287,4.242 3.289,7.433c0,4.22 -1.794,7.138 -5.382,8.753l6.901,8.835Zm-19.145,-21.366l-0,7.56l4.52,0c1.644,0 2.937,-0.326 3.88,-0.979c0.936,-0.623 1.475,-1.693 1.417,-2.816c0.05,-1.104 -0.469,-2.158 -1.375,-2.792c-0.918,-0.653 -2.157,-0.98 -3.716,-0.98l-4.726,0.007Z" style="fill:#e7004b;fill-rule:nonzero;"/><path d="M39.138,29.58c-3.508,0 -6.338,-0.993 -8.492,-2.978c-2.153,-1.986 -3.229,-4.599 -3.226,-7.839c-0,-3.229 1.027,-5.841 3.083,-7.838c2.055,-1.997 4.767,-2.989 8.135,-2.979c3.506,0 6.245,0.98 8.217,2.94c1.973,1.959 2.958,4.542 2.956,7.747c-0,0.107 -0,0.294 -0.02,0.555c-0.019,0.261 -0.019,0.457 -0.019,0.594c-0.03,0.575 -0.382,0.862 -1.068,0.862l-14.25,0c0.229,1.033 0.827,1.946 1.682,2.567c0.898,0.639 1.979,0.971 3.08,0.944c1.205,0 2.136,-0.326 2.793,-0.979c0.338,-0.313 0.774,-0.501 1.234,-0.533l5.177,0c0.284,-0.027 0.565,0.079 0.761,0.288c0.153,0.216 0.175,0.499 0.058,0.738c-0.686,1.84 -2.003,3.376 -3.716,4.337c-1.79,1.047 -3.918,1.572 -6.385,1.574Zm-4.684,-12.695l8.626,0c-0.145,-2.179 -2.008,-3.842 -4.19,-3.739c-1.075,-0.021 -2.121,0.352 -2.94,1.048c-0.819,0.677 -1.353,1.638 -1.496,2.691Z" style="fill:#e7004b;fill-rule:nonzero;"/></g></g></g></g><text x="50.294px" y="28.355px" style="font-family:'Nutmeg-BookItalic', 'Nutmeg';font-weight:300;font-style:italic;font-size:39.059px;fill:#768890;">c<tspan x="71.913px 89.627px 111.598px " y="28.355px 28.355px 28.355px ">rea</tspan></text><g><g><g><g><path d="M154.682,2.763c4.37,0 7.887,1.191 10.551,3.573c2.664,2.382 3.997,5.537 3.999,9.465c-0,3.922 -1.333,7.077 -3.999,9.465c-2.666,2.388 -6.183,3.572 -10.551,3.552l-9.264,0c-0.152,0.02 -0.305,-0.032 -0.413,-0.141c-0.109,-0.109 -0.16,-0.262 -0.14,-0.415l0,-24.931c-0.025,-0.154 0.025,-0.311 0.134,-0.423c0.109,-0.112 0.264,-0.166 0.419,-0.145l9.264,0Zm-0.52,21.917c3.052,0 5.517,-0.818 7.394,-2.455c1.877,-1.636 2.813,-3.783 2.807,-6.439c0,-2.652 -0.936,-4.797 -2.807,-6.436c-1.871,-1.639 -4.336,-2.457 -7.394,-2.455l-4.564,0l-0,17.794l4.564,-0.009Z" style="fill:#768890;fill-rule:nonzero;"/><path d="M175.408,7.052c-0.744,0.018 -1.465,-0.256 -2.009,-0.763c-0.528,-0.466 -0.827,-1.139 -0.819,-1.843c-0.007,-0.703 0.292,-1.375 0.819,-1.84c1.139,-1.017 2.86,-1.017 3.999,0c0.537,0.46 0.843,1.133 0.837,1.84c0.007,0.707 -0.298,1.381 -0.834,1.843c-0.541,0.503 -1.255,0.776 -1.993,0.763Zm-1.71,21.766c-0.153,0.022 -0.308,-0.029 -0.418,-0.139c-0.11,-0.109 -0.162,-0.263 -0.141,-0.417l-0,-16.747c-0.021,-0.153 0.031,-0.308 0.141,-0.417c0.11,-0.109 0.265,-0.161 0.418,-0.139l3.422,0c0.153,-0.022 0.308,0.03 0.418,0.139c0.11,0.109 0.162,0.264 0.141,0.417l0,16.747c0.021,0.154 -0.031,0.308 -0.141,0.417c-0.11,0.11 -0.265,0.161 -0.418,0.139l-3.422,0Z" style="fill:#768890;fill-rule:nonzero;"/><path d="M200.487,10.959c0.153,-0.022 0.308,0.03 0.418,0.139c0.11,0.109 0.162,0.264 0.141,0.417l-0,17.638c-0,2.63 -0.868,4.752 -2.603,6.365c-1.735,1.613 -4.031,2.418 -6.886,2.416c-2.506,0 -4.621,-0.607 -6.344,-1.822c-1.67,-1.133 -2.816,-2.889 -3.18,-4.874c-0.077,-0.397 0.098,-0.592 0.521,-0.592l3.496,0c0.301,-0.017 0.569,0.188 0.633,0.482c0.257,0.906 0.868,1.67 1.694,2.121c0.97,0.544 2.069,0.814 3.18,0.781c1.487,-0 2.684,-0.446 3.591,-1.337c0.907,-0.891 1.36,-2.074 1.358,-3.549l-0,-1.402c-1.528,1.096 -3.368,1.672 -5.248,1.641c-2.879,0 -5.245,-0.887 -7.098,-2.662c-1.854,-1.774 -2.774,-4.052 -2.76,-6.832c0,-2.777 0.924,-5.052 2.771,-6.827c1.848,-1.775 4.214,-2.662 7.099,-2.662c1.88,-0.033 3.72,0.542 5.247,1.639l0,-0.524c-0.021,-0.153 0.032,-0.308 0.141,-0.417c0.11,-0.109 0.265,-0.161 0.418,-0.139l3.411,0Zm-9.184,14.697c1.431,0.047 2.809,-0.546 3.759,-1.618c0.966,-1.08 1.449,-2.46 1.449,-4.14c0,-1.681 -0.483,-3.061 -1.449,-4.141c-0.946,-1.079 -2.325,-1.679 -3.759,-1.636c-1.456,-0.043 -2.858,0.547 -3.845,1.618c-1.004,1.08 -1.506,2.461 -1.506,4.141c0,1.68 0.502,3.06 1.506,4.141c0.983,1.077 2.386,1.674 3.845,1.635Z" style="fill:#768890;fill-rule:nonzero;"/><path d="M207.781,7.052c-0.744,0.02 -1.466,-0.255 -2.009,-0.763c-0.528,-0.466 -0.827,-1.139 -0.819,-1.843c-0.007,-0.703 0.292,-1.375 0.819,-1.84c1.139,-1.017 2.86,-1.017 3.999,0c0.537,0.46 0.843,1.133 0.837,1.84c0.007,0.708 -0.3,1.382 -0.837,1.843c-0.54,0.501 -1.253,0.775 -1.99,0.763Zm-1.713,21.766c-0.155,0.025 -0.312,-0.025 -0.424,-0.134c-0.112,-0.11 -0.165,-0.266 -0.144,-0.422l0,-16.747c-0.021,-0.153 0.031,-0.308 0.141,-0.417c0.11,-0.109 0.265,-0.161 0.418,-0.139l3.422,0c0.154,-0.022 0.309,0.03 0.418,0.139c0.11,0.109 0.163,0.264 0.142,0.417l-0.001,16.747c0.022,0.154 -0.031,0.308 -0.141,0.417c-0.109,0.11 -0.264,0.161 -0.418,0.139l-3.413,0Z" style="fill:#768890;fill-rule:nonzero;"/><path d="M223.593,29.383c-2.155,0 -3.897,-0.657 -5.226,-1.973c-1.329,-1.315 -1.993,-3.053 -1.991,-5.214l0,-7.628l-3.721,-0c-0.155,0.022 -0.312,-0.03 -0.422,-0.142c-0.11,-0.111 -0.161,-0.268 -0.137,-0.423l0,-2.488c-0.021,-0.153 0.031,-0.308 0.141,-0.417c0.11,-0.109 0.265,-0.161 0.418,-0.139l3.721,0l0,-4.942c-0.022,-0.154 0.03,-0.31 0.14,-0.42c0.11,-0.11 0.265,-0.162 0.419,-0.139l3.422,-0c0.154,-0.023 0.31,0.029 0.42,0.139c0.11,0.11 0.161,0.266 0.139,0.42l0,4.942l6.324,0c0.154,-0.022 0.308,0.03 0.418,0.139c0.11,0.109 0.162,0.264 0.141,0.417l0,2.488c0.022,0.154 -0.03,0.309 -0.14,0.419c-0.11,0.11 -0.265,0.162 -0.419,0.14l-6.324,-0l0,7.486c-0.04,0.898 0.279,1.775 0.888,2.437c0.611,0.619 1.456,0.95 2.324,0.911c0.99,0.006 1.977,-0.106 2.941,-0.334c0.149,-0.054 0.315,-0.033 0.447,0.055c0.133,0.088 0.215,0.233 0.224,0.392l0.447,2.602c0.039,0.311 -0.159,0.603 -0.462,0.681c-1.347,0.368 -2.735,0.567 -4.132,0.591Z" style="fill:#768890;fill-rule:nonzero;"/><path d="M253.508,28.262c0.039,0.302 -0.15,0.587 -0.443,0.669c-0.815,0.282 -1.67,0.435 -2.532,0.452c-2.134,0 -3.572,-0.769 -4.316,-2.307c-1.686,1.51 -3.877,2.333 -6.14,2.307c-2.879,0 -5.245,-0.887 -7.099,-2.662c-1.853,-1.774 -2.773,-4.052 -2.759,-6.832c-0,-2.777 0.923,-5.052 2.771,-6.827c1.848,-1.775 4.214,-2.662 7.099,-2.662c1.88,-0.033 3.72,0.542 5.247,1.639l-0,-0.524c-0.021,-0.153 0.031,-0.308 0.141,-0.417c0.11,-0.109 0.265,-0.161 0.418,-0.139l3.41,0c0.154,-0.023 0.31,0.028 0.42,0.137c0.111,0.11 0.164,0.265 0.142,0.419l0,12.503c-0.019,0.368 0.108,0.729 0.352,1.005c0.249,0.254 0.595,0.39 0.95,0.373c0.457,-0.01 0.912,-0.062 1.36,-0.154c0.397,-0.077 0.621,0.074 0.672,0.444l0.307,2.576Zm-13.401,-2.606c1.431,0.047 2.808,-0.546 3.759,-1.618c0.966,-1.08 1.449,-2.46 1.449,-4.14c0,-1.681 -0.483,-3.061 -1.449,-4.141c-0.947,-1.078 -2.325,-1.678 -3.759,-1.636c-1.456,-0.043 -2.859,0.547 -3.846,1.618c-1.005,1.08 -1.508,2.461 -1.508,4.141c-0,1.68 0.503,3.06 1.508,4.141c0.984,1.077 2.387,1.674 3.846,1.635Z" style="fill:#768890;fill-rule:nonzero;"/><path d="M261.699,29.383c-1.562,0 -2.821,-0.378 -3.778,-1.136c-0.937,-0.71 -1.471,-1.83 -1.434,-3.005l-0,-23.399c-0.022,-0.154 0.03,-0.309 0.14,-0.419c0.11,-0.11 0.265,-0.162 0.419,-0.14l3.422,0c0.154,-0.022 0.309,0.03 0.419,0.14c0.11,0.11 0.162,0.265 0.14,0.419l0,22.184c-0.019,0.368 0.108,0.729 0.352,1.005c0.249,0.254 0.594,0.39 0.95,0.373c0.462,-0.007 0.922,-0.057 1.375,-0.148c0.396,-0.077 0.621,0.074 0.671,0.444l0.296,2.57c0.03,0.148 -0.001,0.302 -0.084,0.427c-0.084,0.125 -0.215,0.212 -0.362,0.242c-0.814,0.279 -1.666,0.429 -2.526,0.443Z" style="fill:#768890;fill-rule:nonzero;"/></g></g></g></g></g></svg>