<?xml version="1.0" encoding="UTF-8" standalone="no"?><!DOCTYPE svg PUBLIC "-//W3C//DTD SVG 1.1//EN" "http://www.w3.org/Graphics/SVG/1.1/DTD/svg11.dtd"><svg width="100%" height="100%" viewBox="0 0 424 56" version="1.1" xmlns="http://www.w3.org/2000/svg" xmlns:xlink="http://www.w3.org/1999/xlink" xml:space="preserve" xmlns:serif="http://www.serif.com/" style="fill-rule:evenodd;clip-rule:evenodd;stroke-linejoin:round;stroke-miterlimit:2;"><g><path d="M398.115,18.364l-13.473,-13.473l-11.789,11.789l13.473,13.473l-13.473,13.473l11.789,11.789l13.473,-13.473l13.474,13.473l11.789,-11.789l-13.473,-13.473l13.473,-13.473l-11.789,-11.789l-13.474,13.473Z" style="fill:#ffc600;"/><path d="M280.963,4.891c0,27.247 22.089,49.336 49.336,49.336l0,-49.336l-49.336,-0Z" style="fill:#94c73d;"/><path d="M213.147,0.297c13.942,0 25.262,11.32 25.262,25.263c-0,13.942 -11.32,25.262 -25.262,25.262c-13.943,-0 -25.262,-11.32 -25.262,-25.262c-0,-13.943 11.319,-25.263 25.262,-25.263Zm-0,15.616c5.324,-0 9.647,4.322 9.647,9.647c-0,5.324 -4.323,9.647 -9.647,9.647c-5.325,-0 -9.647,-4.323 -9.647,-9.647c-0,-5.325 4.322,-9.647 9.647,-9.647Z" style="fill:#01a7e0;"/><path d="M24.874,26.396c-0.995,-1.006 -1.411,-2.002 -1.227,-2.929c0.173,-0.877 0.809,-1.612 1.61,-2.147c1.385,-0.925 3.325,-1.261 5.05,-0.449c1.094,0.515 2.073,1.487 2.829,2.965c1.091,2.135 0.766,4.342 -0.346,6.14c-1.696,2.739 -5.121,4.619 -8.577,4.154c-2.347,-0.315 -4.655,-1.754 -6.505,-4.614c-6.694,-10.35 3.087,-20.739 13.38,-20.124c4.549,0.272 9.184,2.722 12.731,8.124c7.42,11.304 2.204,22.496 -7.038,28.439c-9.43,6.063 -23.079,6.826 -32.354,-3.17c-0.935,-1.007 -2.511,-1.066 -3.518,-0.132c-1.008,0.935 -1.067,2.512 -0.132,3.519c11.098,11.961 27.413,11.227 38.697,3.971c11.473,-7.377 17.719,-21.327 8.507,-35.359c-4.594,-6.999 -10.703,-10.01 -16.596,-10.362c-14.073,-0.841 -27.01,13.647 -17.858,27.799c2.815,4.351 6.451,6.364 10.022,6.844c5.421,0.729 10.815,-2.173 13.474,-6.469c1.998,-3.227 2.506,-7.195 0.546,-11.027c-2.053,-4.014 -5.205,-5.754 -8.28,-6.079c-5.287,-0.557 -10.347,3.32 -10.649,7.943c-0.134,2.041 0.565,4.311 2.693,6.464c0.966,0.977 2.543,0.986 3.52,0.02c0.978,-0.966 0.987,-2.543 0.021,-3.521Z" style="fill:#ffc600;"/><rect x="94.974" y="0.297" width="50.357" height="50.357" style="fill:#e7004b;"/></g></svg>