<?xml version="1.0" encoding="UTF-8" standalone="no"?><!DOCTYPE svg PUBLIC "-//W3C//DTD SVG 1.1//EN" "http://www.w3.org/Graphics/SVG/1.1/DTD/svg11.dtd"><svg width="100%" height="100%" viewBox="0 0 607 51" version="1.1" xmlns="http://www.w3.org/2000/svg" xmlns:xlink="http://www.w3.org/1999/xlink" xml:space="preserve" xmlns:serif="http://www.serif.com/" style="fill-rule:evenodd;clip-rule:evenodd;stroke-linejoin:round;stroke-miterlimit:2;"><g id="Logo-ProyectosINtegradores"><g><path d="M1.086,37.962c-0.502,0 -0.753,-0.251 -0.753,-0.753l-0,-33.639c-0,-0.502 0.251,-0.753 0.753,-0.753l13.355,-0c4.05,-0 7.364,1.104 9.941,3.314c2.578,2.209 3.866,5.037 3.866,8.485c0,3.615 -1.338,6.577 -4.016,8.886c-2.678,2.31 -6.109,3.465 -10.293,3.465l-7.23,-0l0,10.242c0,0.502 -0.251,0.753 -0.753,0.753l-4.87,0Zm5.623,-16.518l7.029,-0c2.377,-0 4.335,-0.636 5.875,-1.908c1.539,-1.272 2.309,-2.912 2.309,-4.92c0,-1.841 -0.77,-3.339 -2.309,-4.494c-1.54,-1.155 -3.498,-1.732 -5.875,-1.732l-7.029,-0l0,13.054Z" style="fill:#ffc600;fill-rule:nonzero;"/><path d="M52.022,13.612c0.435,0.133 0.619,0.435 0.552,0.903l-0.602,3.766c-0.101,0.502 -0.402,0.703 -0.904,0.602c-0.937,-0.167 -1.891,-0.251 -2.862,-0.251c-2.142,0 -3.891,0.67 -5.247,2.009c-1.355,1.338 -2.033,3.096 -2.033,5.271l-0,11.297c-0,0.502 -0.251,0.753 -0.753,0.753l-4.619,0c-0.502,0 -0.753,-0.251 -0.753,-0.753l-0,-16.87c-0,-1.238 -0.703,-1.857 -2.109,-1.857c-0.235,-0 -0.703,0.05 -1.406,0.15c-0.603,0.067 -0.904,-0.134 -0.904,-0.602l0,-3.515c0,-0.468 0.201,-0.77 0.603,-0.903c1.071,-0.335 2.092,-0.503 3.062,-0.503c3.046,0 5.004,1.205 5.875,3.615c2.209,-2.41 4.987,-3.615 8.334,-3.615c1.406,0 2.661,0.168 3.766,0.503Z" style="fill:#ffc600;fill-rule:nonzero;"/><path d="M76.044,35.201c-2.444,2.343 -5.674,3.514 -9.691,3.514c-4.016,0 -7.255,-1.171 -9.715,-3.514c-2.46,-2.343 -3.69,-5.439 -3.69,-9.289c-0,-3.849 1.23,-6.945 3.69,-9.288c2.46,-2.343 5.699,-3.515 9.715,-3.515c4.017,0 7.255,1.172 9.716,3.515c2.46,2.343 3.69,5.439 3.69,9.288c-0,3.85 -1.239,6.946 -3.715,9.289Zm-14.962,-3.816c1.339,1.372 3.096,2.059 5.271,2.059c2.176,-0 3.933,-0.687 5.272,-2.059c1.339,-1.372 2.009,-3.197 2.009,-5.473c-0,-2.276 -0.67,-4.1 -2.009,-5.472c-1.339,-1.373 -3.096,-2.059 -5.272,-2.059c-2.175,0 -3.932,0.686 -5.271,2.059c-1.339,1.372 -2.009,3.196 -2.009,5.472c0,2.276 0.67,4.101 2.009,5.473Z" style="fill:#ffc600;fill-rule:nonzero;"/><path d="M109.536,13.863c0.636,-0 0.82,0.301 0.552,0.903l-13.004,28.518c-2.142,4.653 -5.573,6.979 -10.292,6.979c-2.176,0 -4.05,-0.268 -5.624,-0.803c-0.468,-0.168 -0.652,-0.452 -0.552,-0.854l0.603,-3.564c0.133,-0.569 0.435,-0.787 0.903,-0.653c1.272,0.368 2.611,0.552 4.017,0.552c2.477,0 4.251,-1.121 5.322,-3.364l1.305,-2.862l-12.15,-23.949c-0.268,-0.602 -0.084,-0.903 0.552,-0.903l5.021,-0c0.368,-0 0.653,0.184 0.854,0.552l8.786,17.522l7.933,-17.522c0.167,-0.368 0.452,-0.552 0.853,-0.552l4.921,-0Z" style="fill:#ffc600;fill-rule:nonzero;"/><path d="M124.547,38.715c-3.983,0 -7.205,-1.171 -9.665,-3.514c-2.46,-2.343 -3.69,-5.439 -3.69,-9.289c-0,-3.849 1.196,-6.945 3.589,-9.288c2.394,-2.343 5.532,-3.515 9.414,-3.515c3.783,0 6.837,1.155 9.163,3.465c2.326,2.309 3.49,5.355 3.49,9.138c-0,0.468 -0.034,1.138 -0.101,2.008c-0.1,0.435 -0.385,0.653 -0.853,0.653l-18.527,-0c0.469,1.673 1.356,2.995 2.661,3.966c1.305,0.971 2.862,1.456 4.669,1.456c2.176,0 3.766,-0.586 4.77,-1.757c0.301,-0.301 0.619,-0.452 0.954,-0.452l4.971,-0c0.267,-0 0.468,0.084 0.602,0.251c0.134,0.167 0.134,0.368 0,0.602c-0.87,1.908 -2.335,3.431 -4.393,4.569c-2.059,1.138 -4.41,1.707 -7.054,1.707Zm-7.331,-14.66l13.406,-0c-0.067,-1.774 -0.661,-3.222 -1.782,-4.343c-1.122,-1.122 -2.62,-1.682 -4.494,-1.682c-1.875,-0 -3.473,0.552 -4.795,1.657c-1.322,1.104 -2.1,2.56 -2.335,4.368Z" style="fill:#ffc600;fill-rule:nonzero;"/><path d="M152.337,38.715c-4.017,0 -7.247,-1.171 -9.69,-3.514c-2.444,-2.343 -3.666,-5.439 -3.666,-9.289c0,-3.849 1.222,-6.945 3.666,-9.288c2.443,-2.343 5.673,-3.515 9.69,-3.515c3.18,0 5.866,0.787 8.058,2.36c2.192,1.573 3.556,3.665 4.092,6.276c0.1,0.536 -0.117,0.803 -0.653,0.803l-4.769,0c-0.402,0 -0.67,-0.217 -0.804,-0.652c-0.368,-1.071 -1.088,-1.933 -2.159,-2.586c-1.071,-0.653 -2.326,-0.979 -3.765,-0.979c-2.176,0 -3.925,0.695 -5.247,2.084c-1.322,1.389 -1.983,3.221 -1.983,5.497c-0,2.276 0.661,4.109 1.983,5.498c1.322,1.389 3.071,2.084 5.247,2.084c1.439,-0 2.694,-0.327 3.765,-0.979c1.071,-0.653 1.791,-1.515 2.159,-2.586c0.134,-0.435 0.402,-0.653 0.804,-0.653l4.769,0c0.536,0 0.753,0.268 0.653,0.804c-0.536,2.61 -1.9,4.702 -4.092,6.276c-2.192,1.573 -4.878,2.359 -8.058,2.359Z" style="fill:#ffc600;fill-rule:nonzero;"/><path d="M180.127,38.715c-2.912,0 -5.264,-0.887 -7.055,-2.661c-1.79,-1.774 -2.686,-4.117 -2.686,-7.029l0,-10.292l-5.02,-0c-0.502,-0 -0.754,-0.251 -0.754,-0.753l0,-3.364c0,-0.502 0.252,-0.753 0.754,-0.753l5.02,-0l0,-6.678c0,-0.502 0.251,-0.753 0.753,-0.753l4.62,-0c0.502,-0 0.753,0.251 0.753,0.753l-0,6.678l8.535,-0c0.502,-0 0.753,0.251 0.753,0.753l0,3.364c0,0.502 -0.251,0.753 -0.753,0.753l-8.535,-0l-0,10.091c-0,1.373 0.393,2.469 1.18,3.289c0.786,0.82 1.832,1.23 3.138,1.23c1.405,0 2.728,-0.15 3.966,-0.452c0.502,-0.1 0.803,0.101 0.904,0.603l0.602,3.514c0.034,0.435 -0.167,0.737 -0.602,0.904c-2.076,0.536 -3.933,0.803 -5.573,0.803Z" style="fill:#ffc600;fill-rule:nonzero;"/><path d="M210.778,35.201c-2.443,2.343 -5.673,3.514 -9.69,3.514c-4.016,0 -7.255,-1.171 -9.715,-3.514c-2.46,-2.343 -3.69,-5.439 -3.69,-9.289c-0,-3.849 1.23,-6.945 3.69,-9.288c2.46,-2.343 5.699,-3.515 9.715,-3.515c4.017,0 7.255,1.172 9.716,3.515c2.46,2.343 3.69,5.439 3.69,9.288c-0,3.85 -1.239,6.946 -3.716,9.289Zm-14.961,-3.816c1.338,1.372 3.096,2.059 5.271,2.059c2.176,-0 3.933,-0.687 5.272,-2.059c1.339,-1.372 2.008,-3.197 2.008,-5.473c0,-2.276 -0.669,-4.1 -2.008,-5.472c-1.339,-1.373 -3.096,-2.059 -5.272,-2.059c-2.175,0 -3.933,0.686 -5.271,2.059c-1.339,1.372 -2.009,3.196 -2.009,5.472c0,2.276 0.67,4.101 2.009,5.473Z" style="fill:#ffc600;fill-rule:nonzero;"/><path d="M228.075,38.715c-3.414,0 -6.167,-0.703 -8.259,-2.108c-2.092,-1.406 -3.322,-3.364 -3.69,-5.875c-0.067,-0.535 0.184,-0.803 0.753,-0.803l4.217,0.05c0.402,0 0.67,0.218 0.803,0.653c0.737,2.243 2.795,3.364 6.176,3.364c1.439,-0 2.611,-0.251 3.515,-0.753c0.903,-0.502 1.355,-1.155 1.355,-1.958c0,-0.971 -0.552,-1.682 -1.657,-2.134c-1.104,-0.452 -2.435,-0.778 -3.991,-0.979c-1.557,-0.201 -3.113,-0.469 -4.67,-0.804c-1.556,-0.334 -2.886,-1.046 -3.991,-2.133c-1.105,-1.088 -1.657,-2.586 -1.657,-4.494c0,-2.276 0.971,-4.117 2.912,-5.523c1.941,-1.406 4.502,-2.109 7.682,-2.109c2.945,0 5.422,0.653 7.431,1.959c2.008,1.305 3.179,3.029 3.514,5.171c0.067,0.535 -0.184,0.803 -0.753,0.803l-4.217,0c-0.436,0 -0.703,-0.15 -0.804,-0.452c-0.301,-0.903 -0.929,-1.631 -1.882,-2.184c-0.954,-0.552 -2.051,-0.828 -3.289,-0.828c-1.372,-0 -2.469,0.234 -3.289,0.703c-0.82,0.468 -1.23,1.088 -1.23,1.858c0,0.87 0.394,1.556 1.18,2.058c0.787,0.502 1.757,0.82 2.912,0.954c1.155,0.134 2.418,0.343 3.791,0.628c1.372,0.284 2.636,0.619 3.791,1.004c1.154,0.385 2.125,1.096 2.912,2.134c0.786,1.037 1.179,2.359 1.179,3.966c0,2.343 -0.987,4.234 -2.962,5.673c-1.975,1.44 -4.569,2.159 -7.782,2.159Z" style="fill:#ffc600;fill-rule:nonzero;"/></g><g><path d="M254.897,37.584c-0.639,-0 -0.959,-0.32 -0.959,-0.959l-0,-4.793c-0,-0.639 0.32,-0.959 0.959,-0.959l4.995,-0l-0,-21.899l-4.995,0c-0.639,0 -0.959,-0.319 -0.959,-0.958l-0,-4.794c-0,-0.639 0.32,-0.959 0.959,-0.959l17.912,0c0.673,0 1.009,0.32 1.009,0.959l0,4.794c0,0.639 -0.336,0.958 -1.009,0.958l-4.995,0l-0,21.899l4.995,-0c0.673,-0 1.009,0.32 1.009,0.959l0,4.793c0,0.639 -0.336,0.959 -1.009,0.959l-17.912,-0Z" style="fill:#e7004b;fill-rule:nonzero;"/><path d="M295.767,12.305c3.297,-0 5.954,1.017 7.973,3.052c2.018,2.035 3.027,4.735 3.027,8.099l0,13.169c0,0.639 -0.319,0.959 -0.959,0.959l-5.651,-0c-0.673,-0 -1.009,-0.32 -1.009,-0.959l0,-12.16c0,-1.716 -0.479,-3.095 -1.438,-4.138c-0.959,-1.042 -2.245,-1.564 -3.86,-1.564c-1.682,0 -3.036,0.496 -4.062,1.489c-1.026,0.992 -1.539,2.312 -1.539,3.961l0,12.412c0,0.639 -0.319,0.959 -0.959,0.959l-5.651,-0c-0.639,-0 -0.958,-0.32 -0.958,-0.959l-0,-15.844c-0,-1.311 -0.656,-1.967 -1.968,-1.967c-0.135,-0 -0.505,0.05 -1.11,0.151c-0.74,-0 -1.11,-0.269 -1.11,-0.807l-0,-4.138c-0,-0.572 0.252,-0.942 0.756,-1.11c1.043,-0.404 2.254,-0.605 3.633,-0.605c2.893,-0 4.912,1.059 6.055,3.178c2.119,-2.119 5.063,-3.178 8.83,-3.178Z" style="fill:#e7004b;fill-rule:nonzero;"/><path d="M325.991,38.391c-3.296,0 -5.895,-0.933 -7.795,-2.8c-1.901,-1.867 -2.851,-4.415 -2.851,-7.645l-0,-8.729l-4.642,0c-0.639,0 -0.959,-0.319 -0.959,-0.958l0,-4.188c0,-0.64 0.32,-0.959 0.959,-0.959l4.642,-0l-0,-6.408c-0,-0.639 0.319,-0.959 0.959,-0.959l5.651,0c0.639,0 0.959,0.32 0.959,0.959l-0,6.408l7.921,-0c0.64,-0 0.959,0.319 0.959,0.959l0,4.188c0,0.639 -0.319,0.958 -0.959,0.958l-7.921,0l-0,8.477c-0,1.278 0.378,2.288 1.135,3.028c0.757,0.74 1.774,1.11 3.053,1.11c1.311,-0 2.573,-0.152 3.784,-0.454c0.639,-0.101 1.009,0.151 1.11,0.756l0.656,4.34c0.034,0.538 -0.219,0.908 -0.757,1.11c-2.153,0.538 -4.121,0.807 -5.904,0.807Z" style="fill:#e7004b;fill-rule:nonzero;"/><path d="M349.757,38.391c-4.137,0 -7.485,-1.194 -10.041,-3.582c-2.557,-2.389 -3.835,-5.534 -3.835,-9.436c0,-3.936 1.236,-7.098 3.709,-9.486c2.472,-2.388 5.71,-3.582 9.713,-3.582c4.037,-0 7.241,1.177 9.612,3.532c2.372,2.354 3.557,5.466 3.557,9.334c0,0.202 -0.008,0.496 -0.025,0.883c-0.017,0.387 -0.025,0.665 -0.025,0.833c-0.101,0.572 -0.454,0.858 -1.06,0.858l-18.114,-0c0.404,1.513 1.203,2.707 2.397,3.582c1.194,0.875 2.615,1.312 4.263,1.312c1.851,-0 3.23,-0.505 4.138,-1.514c0.437,-0.336 0.841,-0.504 1.211,-0.504l5.651,-0c0.37,-0 0.631,0.092 0.782,0.277c0.152,0.185 0.16,0.429 0.025,0.732c-0.874,2.085 -2.371,3.734 -4.49,4.945c-2.119,1.211 -4.609,1.816 -7.468,1.816Zm-6.559,-15.137l12.059,-0c-0.067,-1.581 -0.622,-2.868 -1.665,-3.86c-1.043,-0.993 -2.405,-1.489 -4.087,-1.489c-1.649,0 -3.053,0.496 -4.213,1.489c-1.161,0.992 -1.859,2.279 -2.094,3.86Z" style="fill:#e7004b;fill-rule:nonzero;"/><path d="M393.605,13.112c0.639,-0 0.958,0.319 0.958,0.959l0,24.118c0,3.566 -1.244,6.45 -3.733,8.654c-2.49,2.203 -5.753,3.305 -9.789,3.305c-3.633,-0 -6.669,-0.841 -9.108,-2.523c-2.439,-1.682 -3.91,-3.919 -4.415,-6.711c-0.168,-0.639 0.135,-0.959 0.908,-0.959l5.652,0c0.471,0 0.841,0.253 1.11,0.757c0.336,1.009 1.026,1.808 2.068,2.397c1.043,0.589 2.288,0.883 3.734,0.883c1.817,-0 3.263,-0.521 4.34,-1.564c1.076,-1.043 1.614,-2.439 1.614,-4.188l0,-2.119c-1.917,1.446 -4.255,2.169 -7.013,2.169c-3.869,0 -7.048,-1.219 -9.537,-3.658c-2.489,-2.439 -3.734,-5.559 -3.734,-9.36c0,-3.801 1.245,-6.913 3.734,-9.335c2.489,-2.421 5.668,-3.632 9.537,-3.632c2.792,-0 5.18,0.773 7.165,2.321l-0,-0.555c-0,-0.64 0.319,-0.959 0.958,-0.959l5.551,-0Zm-13.018,19.224c1.883,0 3.414,-0.656 4.591,-1.968c1.178,-1.312 1.766,-3.01 1.766,-5.096c0,-2.085 -0.597,-3.784 -1.791,-5.096c-1.194,-1.312 -2.716,-1.968 -4.566,-1.968c-1.884,0 -3.44,0.664 -4.668,1.993c-1.227,1.329 -1.841,3.019 -1.841,5.071c-0,2.086 0.605,3.784 1.816,5.096c1.211,1.312 2.775,1.968 4.693,1.968Z" style="fill:#e7004b;fill-rule:nonzero;"/><path d="M421.155,12.759c0.571,0.134 0.824,0.504 0.756,1.11l-0.655,4.844c-0.101,0.605 -0.471,0.857 -1.111,0.757c-0.841,-0.169 -1.766,-0.253 -2.775,-0.253c-1.951,0 -3.549,0.589 -4.793,1.766c-1.245,1.178 -1.867,2.775 -1.867,4.794l-0,10.848c-0,0.639 -0.32,0.959 -0.959,0.959l-5.651,-0c-0.639,-0 -0.959,-0.32 -0.959,-0.959l0,-15.844c0,-1.311 -0.656,-1.967 -1.968,-1.967c-0.134,-0 -0.504,0.05 -1.11,0.151c-0.74,-0 -1.11,-0.269 -1.11,-0.807l0,-4.138c0,-0.572 0.253,-0.942 0.757,-1.11c1.177,-0.404 2.388,-0.605 3.633,-0.605c3.028,-0 5.063,1.143 6.105,3.431c2.086,-2.288 4.828,-3.431 8.225,-3.431c1.413,-0 2.573,0.151 3.482,0.454Z" style="fill:#e7004b;fill-rule:nonzero;"/><path d="M456.98,36.726c0.067,0.572 -0.202,0.925 -0.808,1.06c-1.379,0.403 -2.64,0.605 -3.784,0.605c-3.095,0 -5.214,-1.026 -6.358,-3.078c-2.354,2.052 -5.18,3.078 -8.477,3.078c-3.902,0 -7.089,-1.211 -9.561,-3.633c-2.473,-2.422 -3.709,-5.55 -3.709,-9.385c-0,-3.868 1.236,-7.014 3.709,-9.436c2.472,-2.421 5.659,-3.632 9.561,-3.632c2.792,-0 5.181,0.773 7.165,2.321l0,-0.555c0,-0.64 0.32,-0.959 0.959,-0.959l5.55,-0c0.639,-0 0.959,0.319 0.959,0.959l0,15.843c0,1.312 0.555,1.968 1.665,1.968c0.606,0 1.127,-0.05 1.564,-0.151c0.673,-0.068 1.026,0.202 1.06,0.807l0.505,4.188Zm-18.771,-4.238c1.884,-0 3.415,-0.665 4.592,-1.993c1.177,-1.329 1.766,-3.036 1.766,-5.122c-0,-2.119 -0.589,-3.843 -1.766,-5.172c-1.177,-1.329 -2.708,-1.993 -4.592,-1.993c-1.917,0 -3.481,0.664 -4.692,1.993c-1.211,1.329 -1.817,3.053 -1.817,5.172c0,2.086 0.606,3.793 1.817,5.122c1.211,1.328 2.775,1.993 4.692,1.993Z" style="fill:#e7004b;fill-rule:nonzero;"/><path d="M492.754,36.726c0.101,0.572 -0.151,0.925 -0.757,1.06c-1.379,0.403 -2.674,0.605 -3.885,0.605c-3.128,0 -5.248,-1.059 -6.358,-3.179c-2.22,2.12 -5.012,3.179 -8.376,3.179c-3.902,0 -7.089,-1.211 -9.561,-3.633c-2.473,-2.422 -3.709,-5.55 -3.709,-9.385c-0,-3.868 1.236,-7.014 3.709,-9.436c2.472,-2.421 5.659,-3.632 9.561,-3.632c2.691,-0 5.029,0.723 7.014,2.169l-0,-13.27c-0,-0.639 0.319,-0.959 0.959,-0.959l5.701,0c0.639,0 0.959,0.32 0.959,0.959l-0,28.761c-0,1.278 0.555,1.917 1.665,1.917c0.606,0 1.11,-0.05 1.514,-0.151c0.706,-0.068 1.076,0.202 1.11,0.807l0.454,4.188Zm-18.72,-4.238c1.884,-0 3.415,-0.665 4.592,-1.993c1.177,-1.329 1.766,-3.036 1.766,-5.122c-0,-2.119 -0.589,-3.843 -1.766,-5.172c-1.177,-1.329 -2.708,-1.993 -4.592,-1.993c-1.917,0 -3.481,0.664 -4.692,1.993c-1.211,1.329 -1.817,3.053 -1.817,5.172c0,2.086 0.606,3.793 1.817,5.122c1.211,1.328 2.775,1.993 4.692,1.993Z" style="fill:#e7004b;fill-rule:nonzero;"/><path d="M519.9,34.809c-2.523,2.388 -5.87,3.582 -10.041,3.582c-4.171,0 -7.526,-1.194 -10.066,-3.582c-2.54,-2.389 -3.81,-5.534 -3.81,-9.436c0,-3.936 1.27,-7.098 3.81,-9.486c2.54,-2.388 5.895,-3.582 10.066,-3.582c4.171,-0 7.527,1.194 10.066,3.582c2.54,2.388 3.81,5.55 3.81,9.486c-0,3.902 -1.278,7.047 -3.835,9.436Zm-14.885,-4.491c1.245,1.211 2.859,1.816 4.844,1.816c1.985,0 3.591,-0.614 4.819,-1.841c1.228,-1.228 1.842,-2.868 1.842,-4.92c-0,-2.052 -0.614,-3.7 -1.842,-4.945c-1.228,-1.244 -2.834,-1.867 -4.819,-1.867c-1.985,0 -3.591,0.623 -4.819,1.867c-1.227,1.245 -1.841,2.893 -1.841,4.945c-0,2.052 0.605,3.7 1.816,4.945Z" style="fill:#e7004b;fill-rule:nonzero;"/><path d="M549.166,12.759c0.571,0.134 0.824,0.504 0.757,1.11l-0.656,4.844c-0.101,0.605 -0.471,0.857 -1.111,0.757c-0.84,-0.169 -1.766,-0.253 -2.775,-0.253c-1.951,0 -3.549,0.589 -4.793,1.766c-1.245,1.178 -1.867,2.775 -1.867,4.794l-0,10.848c-0,0.639 -0.32,0.959 -0.959,0.959l-5.651,-0c-0.639,-0 -0.959,-0.32 -0.959,-0.959l0,-15.844c0,-1.311 -0.656,-1.967 -1.968,-1.967c-0.134,-0 -0.504,0.05 -1.11,0.151c-0.74,-0 -1.11,-0.269 -1.11,-0.807l0,-4.138c0,-0.572 0.253,-0.942 0.757,-1.11c1.177,-0.404 2.388,-0.605 3.633,-0.605c3.028,-0 5.063,1.143 6.105,3.431c2.086,-2.288 4.828,-3.431 8.225,-3.431c1.413,-0 2.573,0.151 3.482,0.454Z" style="fill:#e7004b;fill-rule:nonzero;"/><path d="M566.22,38.391c-4.137,0 -7.484,-1.194 -10.041,-3.582c-2.556,-2.389 -3.835,-5.534 -3.835,-9.436c0,-3.936 1.237,-7.098 3.709,-9.486c2.473,-2.388 5.71,-3.582 9.713,-3.582c4.037,-0 7.241,1.177 9.612,3.532c2.372,2.354 3.558,5.466 3.558,9.334c-0,0.202 -0.009,0.496 -0.026,0.883c-0.016,0.387 -0.025,0.665 -0.025,0.833c-0.101,0.572 -0.454,0.858 -1.059,0.858l-18.115,-0c0.404,1.513 1.203,2.707 2.397,3.582c1.194,0.875 2.615,1.312 4.264,1.312c1.85,-0 3.229,-0.505 4.137,-1.514c0.438,-0.336 0.841,-0.504 1.211,-0.504l5.651,-0c0.37,-0 0.631,0.092 0.783,0.277c0.151,0.185 0.159,0.429 0.025,0.732c-0.875,2.085 -2.372,3.734 -4.491,4.945c-2.119,1.211 -4.608,1.816 -7.468,1.816Zm-6.559,-15.137l12.059,-0c-0.067,-1.581 -0.622,-2.868 -1.665,-3.86c-1.043,-0.993 -2.405,-1.489 -4.087,-1.489c-1.648,0 -3.053,0.496 -4.213,1.489c-1.161,0.992 -1.859,2.279 -2.094,3.86Z" style="fill:#e7004b;fill-rule:nonzero;"/><path d="M594.88,38.391c-3.532,0 -6.408,-0.698 -8.628,-2.094c-2.22,-1.396 -3.515,-3.338 -3.885,-5.828c-0.101,-0.672 0.218,-1.009 0.958,-1.009l4.945,0.051c0.438,-0 0.808,0.235 1.11,0.706c0.707,1.816 2.54,2.725 5.5,2.725c1.245,-0 2.246,-0.202 3.002,-0.606c0.757,-0.403 1.136,-0.942 1.136,-1.614c-0,-0.875 -0.538,-1.506 -1.615,-1.893c-1.076,-0.386 -2.388,-0.672 -3.936,-0.857c-1.547,-0.185 -3.094,-0.463 -4.642,-0.833c-1.547,-0.37 -2.859,-1.127 -3.935,-2.271c-1.077,-1.143 -1.615,-2.691 -1.615,-4.642c0,-2.388 1.026,-4.305 3.078,-5.752c2.052,-1.446 4.76,-2.169 8.124,-2.169c3.162,-0 5.811,0.664 7.947,1.993c2.136,1.328 3.372,3.086 3.708,5.272c0.101,0.673 -0.202,1.01 -0.908,1.01l-4.995,-0c-0.438,-0 -0.774,-0.202 -1.009,-0.606c-0.303,-0.74 -0.883,-1.337 -1.741,-1.791c-0.858,-0.454 -1.825,-0.681 -2.901,-0.681c-1.178,-0 -2.128,0.193 -2.851,0.58c-0.724,0.387 -1.085,0.9 -1.085,1.539c-0,0.908 0.546,1.581 1.64,2.018c1.093,0.437 2.422,0.765 3.986,0.984c1.564,0.219 3.12,0.513 4.667,0.883c1.548,0.37 2.868,1.127 3.961,2.271c1.093,1.143 1.64,2.674 1.64,4.591c-0,2.456 -1.043,4.407 -3.128,5.853c-2.086,1.447 -4.928,2.17 -8.528,2.17Z" style="fill:#e7004b;fill-rule:nonzero;"/></g></g></svg>